<svg width="50" height="50" viewBox="0 0 50 50" fill="none" xmlns="http://www.w3.org/2000/svg">
<path d="M25 0C18.3696 0 12.0107 2.63392 7.32233 7.32233C2.63392 12.0107 0 18.3696 0 25C0 31.6304 2.63392 37.9893 7.32233 42.6777C12.0107 47.3661 18.3696 50 25 50C30.1551 50 35.5764 48.4421 39.5 45.8333C40.1139 45.4254 40.5406 44.7903 40.6863 44.0677C40.8319 43.3451 40.6846 42.5942 40.2766 41.9803C39.8687 41.3664 39.2335 40.9397 38.511 40.794C37.7884 40.6484 37.0375 40.7957 36.4236 41.2037C33.4144 43.2014 29.0417 44.4444 25 44.4444C21.1543 44.4444 17.3949 43.304 14.1972 41.1675C10.9996 39.0309 8.50738 35.9941 7.03568 32.4411C5.56397 28.8881 5.17891 24.9784 5.92918 21.2066C6.67944 17.4347 8.53135 13.9701 11.2507 11.2507C13.9701 8.53135 17.4347 6.67944 21.2066 5.92918C24.9784 5.17891 28.8881 5.56397 32.4411 7.03568C35.9941 8.50738 39.0309 10.9996 41.1675 14.1972C43.304 17.3949 44.4444 21.1543 44.4444 25C44.4444 27.1505 44.0579 28.9537 43.3588 30.081C42.7477 31.0625 41.9699 31.4815 40.7407 31.4815C39.5116 31.4815 38.7338 31.0625 38.1227 30.081C37.4282 28.9537 37.037 27.1505 37.037 25V15.7407C37.037 15.0742 36.7972 14.4299 36.3616 13.9255C35.926 13.421 35.3235 13.09 34.664 12.9929C34.0046 12.8958 33.3323 13.039 32.7697 13.3964C32.2071 13.7538 31.7918 14.3016 31.5995 14.9398C29.6897 13.6849 27.462 12.9995 25.177 12.9639C22.892 12.9283 20.6441 13.5439 18.6961 14.7387C16.748 15.9336 15.1804 17.6582 14.1764 19.7111C13.1724 21.764 12.7735 24.0603 13.0264 26.3316C13.2793 28.6028 14.1735 30.7551 15.6045 32.5369C17.0355 34.3187 18.9441 35.6563 21.1073 36.3933C23.2704 37.1304 25.5987 37.2364 27.8199 36.699C30.0411 36.1617 32.0634 35.0031 33.6505 33.3588C35.2546 35.7176 37.6875 37.037 40.7407 37.037C46.4514 37.037 50 32.4259 50 25C49.9926 18.3718 47.3564 12.0173 42.6695 7.33045C37.9827 2.64363 31.6282 0.00735237 25 0ZM25 31.4815C23.7181 31.4815 22.465 31.1013 21.3991 30.3892C20.3332 29.677 19.5025 28.6647 19.0119 27.4804C18.5213 26.296 18.393 24.9928 18.6431 23.7355C18.8931 22.4782 19.5104 21.3234 20.4169 20.4169C21.3234 19.5104 22.4782 18.8931 23.7355 18.6431C24.9928 18.393 26.296 18.5213 27.4804 19.0119C28.6647 19.5025 29.677 20.3332 30.3892 21.3991C31.1013 22.465 31.4815 23.7181 31.4815 25C31.4815 26.719 30.7986 28.3676 29.5831 29.5831C28.3676 30.7986 26.719 31.4815 25 31.4815Z" fill="white"/>
</svg>
