<svg width="38" height="38" viewBox="0 0 38 38" fill="none" xmlns="http://www.w3.org/2000/svg">
<path d="M33.7577 25.5208L28.466 24.9167C27.8438 24.8436 27.2131 24.9125 26.6213 25.1182C26.0296 25.3238 25.4921 25.6609 25.0493 26.1042L21.216 29.9375C15.3018 26.9296 10.4947 22.1225 7.48682 16.2083L11.341 12.3542C12.2368 11.4583 12.6743 10.2083 12.5285 8.9375L11.9243 3.6875C11.8062 2.6712 11.3185 1.73383 10.554 1.05385C9.78949 0.373875 8.80163 -0.00121303 7.77849 2.94727e-06H4.17432C1.82015 2.94727e-06 -0.13818 1.95834 0.00765308 4.3125C1.11182 22.1042 15.341 36.3125 33.1118 37.4167C35.466 37.5625 37.4243 35.6042 37.4243 33.25V29.6458C37.4452 27.5417 35.8618 25.7708 33.7577 25.5208Z" fill="white"/>
</svg>
