<svg width="25" height="25" viewBox="0 0 25 25" fill="none" xmlns="http://www.w3.org/2000/svg">
<path d="M22.5505 17.0483L19.0156 16.6447C18.6 16.5959 18.1786 16.6419 17.7833 16.7793C17.388 16.9167 17.029 17.1419 16.7332 17.438L14.1725 19.9987C10.2218 17.9894 7.01057 14.7782 5.00128 10.8274L7.57591 8.25277C8.17433 7.65434 8.46659 6.81932 8.36917 5.97038L7.96558 2.46331C7.88668 1.7844 7.56087 1.15822 7.05018 0.703988C6.53949 0.249754 5.87959 -0.000810323 5.19612 1.96882e-06H2.78849C1.21588 1.96882e-06 -0.092306 1.3082 0.00511234 2.88082C0.742708 14.7659 10.248 24.2573 22.1191 24.9949C23.6917 25.0923 24.9999 23.7841 24.9999 22.2115V19.8039C25.0138 18.3982 23.9561 17.2153 22.5505 17.0483Z" fill="white"/>
</svg>
