<svg width="50" height="40" viewBox="0 0 50 40" fill="none" xmlns="http://www.w3.org/2000/svg">
<path d="M42.3063 3.32424C39.1396 1.77465 35.7109 0.649945 32.1394 0.000114965C32.1081 -0.000936267 32.0769 0.00523232 32.0481 0.0181871C32.0193 0.0311419 31.9936 0.0505683 31.9727 0.0750959C31.5441 0.89988 31.0441 1.9746 30.7108 2.79938C26.9226 2.19954 23.0701 2.19954 19.2819 2.79938C18.9485 1.9496 18.4485 0.89988 17.9961 0.0750959C17.9723 0.0251089 17.9009 0.000114965 17.8295 0.000114965C14.2579 0.649945 10.8531 1.77465 7.66251 3.32424C7.6387 3.32424 7.61489 3.34924 7.59108 3.37423C1.11471 13.5466 -0.671056 23.444 0.20992 33.2414C0.20992 33.2914 0.23373 33.3414 0.281351 33.3664C4.56718 36.6655 8.68634 38.665 12.7579 39.9896C12.8293 40.0146 12.9007 39.9896 12.9246 39.9397C13.877 38.565 14.7341 37.1154 15.4722 35.5908C15.5199 35.4908 15.4722 35.3908 15.377 35.3659C14.0198 34.816 12.7341 34.1662 11.4721 33.4164C11.3769 33.3664 11.3769 33.2164 11.4483 33.1414C11.7102 32.9415 11.9721 32.7166 12.2341 32.5166C12.2817 32.4666 12.3531 32.4666 12.4007 32.4916C20.5914 36.4156 29.425 36.4156 37.5205 32.4916C37.5681 32.4666 37.6395 32.4666 37.6871 32.5166C37.9491 32.7415 38.211 32.9415 38.4729 33.1664C38.5681 33.2414 38.5681 33.3914 38.4491 33.4414C37.2109 34.2162 35.9014 34.841 34.5442 35.3909C34.449 35.4158 34.4251 35.5408 34.449 35.6158C35.2109 37.1404 36.068 38.59 36.9966 39.9647C37.0681 39.9896 37.1395 40.0146 37.2109 39.9896C41.3063 38.665 45.4254 36.6655 49.7113 33.3664C49.7589 33.3414 49.7827 33.2914 49.7827 33.2414C50.8304 21.9194 48.0446 12.0969 42.4016 3.37423C42.3777 3.34924 42.3539 3.32424 42.3063 3.32424ZM16.7104 27.268C14.2579 27.268 12.2102 24.8936 12.2102 21.9694C12.2102 19.0451 14.2103 16.6708 16.7104 16.6708C19.2343 16.6708 21.2343 19.0701 21.2105 21.9694C21.2105 24.8936 19.2104 27.268 16.7104 27.268ZM33.3061 27.268C30.8536 27.268 28.8059 24.8936 28.8059 21.9694C28.8059 19.0451 30.806 16.6708 33.3061 16.6708C35.8299 16.6708 37.83 19.0701 37.8062 21.9694C37.8062 24.8936 35.8299 27.268 33.3061 27.268Z" fill="white"/>
</svg>
