<svg width="245" height="216" viewBox="0 0 245 216" fill="none" xmlns="http://www.w3.org/2000/svg">
<path d="M36.8355 212V175.4H86.6355C95.8355 175.4 103.036 172.7 108.236 167.3C113.436 161.9 116.036 155.3 116.036 147.5C116.036 142.1 114.836 137.3 112.436 133.1C110.036 128.9 106.636 125.6 102.236 123.2C98.0356 120.8 92.8356 119.6 86.6355 119.6H36.8355V83.9H82.7356C90.5356 83.9 96.8356 82 101.636 78.2C106.436 74.2 108.836 68.2 108.836 60.2C108.836 52.4 106.436 46.6 101.636 42.8C96.8356 38.8 90.5356 36.8 82.7356 36.8H36.8355V0.199991H91.7356C105.336 0.199991 116.836 2.69999 126.236 7.69998C135.836 12.7 143.136 19.4 148.136 27.8C153.136 36.2 155.636 45.5 155.636 55.7C155.636 68.7 151.436 79.7 143.036 88.7C134.636 97.7 122.236 103.9 105.836 107.3L107.036 91.4C124.836 94.8 138.536 101.7 148.136 112.1C157.936 122.5 162.836 135.3 162.836 150.5C162.836 162.1 159.936 172.6 154.136 182C148.536 191.2 140.336 198.5 129.536 203.9C118.936 209.3 106.136 212 91.1356 212H36.8355ZM0.835548 212V0.199991H47.3355V212H0.835548ZM217.623 215.3C209.823 215.3 203.323 212.6 198.123 207.2C192.923 201.8 190.323 195.3 190.323 187.7C190.323 179.7 192.923 173.1 198.123 167.9C203.323 162.5 209.823 159.8 217.623 159.8C225.623 159.8 232.123 162.5 237.123 167.9C242.323 173.1 244.923 179.7 244.923 187.7C244.923 195.3 242.323 201.8 237.123 207.2C232.123 212.6 225.623 215.3 217.623 215.3Z" fill="url(#paint0_linear_55_2)"/>
<defs>
<linearGradient id="paint0_linear_55_2" x1="-64" y1="-70" x2="307" y2="272" gradientUnits="userSpaceOnUse">
<stop offset="0.00103751" stop-color="#12FFF1"/>
<stop offset="1" stop-color="#0C6DFF"/>
</linearGradient>
</defs>
</svg>
