<?xml version="1.0" encoding="UTF-8"?>
<svg xmlns="http://www.w3.org/2000/svg" xmlns:xlink="http://www.w3.org/1999/xlink" width="512px" height="512px" viewBox="0 0 512 512" version="1.1">
<defs>
<linearGradient id="linear0" gradientUnits="userSpaceOnUse" x1="-64" y1="-70" x2="307" y2="272" gradientTransform="matrix(2.367347,0,0,2.37037,0,0)">
<stop offset="0.00103751" style="stop-color:rgb(7.058824%,100%,94.509804%);stop-opacity:1;"/>
<stop offset="1" style="stop-color:rgb(4.705882%,42.745098%,100%);stop-opacity:1;"/>
</linearGradient>
</defs>
<g id="surface1">
<path style=" stroke:none;fill-rule:nonzero;fill:url(#linear0);" d="M 87.203125 502.519531 L 87.203125 415.761719 L 205.097656 415.761719 C 226.875 415.761719 243.921875 409.363281 256.230469 396.5625 C 268.542969 383.761719 274.699219 368.117188 274.699219 349.628906 C 274.699219 336.828125 271.855469 325.453125 266.175781 315.496094 C 260.492188 305.539062 252.445312 297.71875 242.027344 292.03125 C 232.085938 286.339844 219.773438 283.496094 205.097656 283.496094 L 87.203125 283.496094 L 87.203125 198.875 L 195.863281 198.875 C 214.328125 198.875 229.242188 194.371094 240.609375 185.363281 C 251.972656 175.882812 257.652344 161.660156 257.652344 142.695312 C 257.652344 124.207031 251.972656 110.460938 240.609375 101.453125 C 229.242188 91.96875 214.328125 87.230469 195.863281 87.230469 L 87.203125 87.230469 L 87.203125 0.472656 L 217.171875 0.472656 C 249.367188 0.472656 276.589844 6.398438 298.84375 18.25 C 321.570312 30.105469 338.851562 45.984375 350.6875 65.894531 C 362.527344 85.808594 368.445312 107.851562 368.445312 132.03125 C 368.445312 162.84375 358.5 188.917969 338.617188 210.25 C 318.730469 231.585938 289.375 246.28125 250.550781 254.339844 L 253.390625 216.652344 C 295.53125 224.710938 327.960938 241.066406 350.6875 265.71875 C 373.890625 290.371094 385.488281 320.710938 385.488281 356.742188 C 385.488281 384.238281 378.625 409.125 364.894531 431.40625 C 351.636719 453.214844 332.222656 470.519531 306.65625 483.320312 C 281.5625 496.117188 251.261719 502.519531 215.75 502.519531 Z M 1.976562 502.519531 L 1.976562 0.472656 L 112.058594 0.472656 L 112.058594 502.519531 Z M 515.1875 510.339844 C 496.722656 510.339844 481.335938 503.941406 469.027344 491.140625 C 456.714844 478.339844 450.5625 462.933594 450.5625 444.917969 C 450.5625 425.957031 456.714844 410.3125 469.027344 397.984375 C 481.335938 385.183594 496.722656 378.785156 515.1875 378.785156 C 534.128906 378.785156 549.515625 385.183594 561.351562 397.984375 C 573.664062 410.3125 579.816406 425.957031 579.816406 444.917969 C 579.816406 462.933594 573.664062 478.339844 561.351562 491.140625 C 549.515625 503.941406 534.128906 510.339844 515.1875 510.339844 Z M 515.1875 510.339844 "/>
</g>
</svg>
