<svg width="42" height="42" viewBox="0 0 42 42" fill="" xmlns="http://www.w3.org/2000/svg">
<path d="M21 0.166504C9.50002 0.166504 0.166687 9.49984 0.166687 20.9998C0.166687 32.4998 9.50002 41.8332 21 41.8332C32.5 41.8332 41.8334 32.4998 41.8334 20.9998C41.8334 9.49984 32.5 0.166504 21 0.166504ZM33.0834 23.7707C33.125 24.0623 33.1459 24.3748 33.1459 24.6873C33.1459 29.354 27.7084 33.1457 21 33.1457C14.2917 33.1457 8.85419 29.354 8.85419 24.6873C8.85419 24.3748 8.87502 24.0623 8.91669 23.7707C7.85419 23.2915 7.12502 22.229 7.12502 20.9998C7.12193 20.4024 7.29544 19.8174 7.62376 19.3183C7.95207 18.8192 8.42055 18.4282 8.97035 18.1945C9.52015 17.9608 10.1267 17.8947 10.714 18.0047C11.3012 18.1146 11.8428 18.3956 12.2709 18.8123C14.375 17.2915 17.2917 16.3332 20.5209 16.229L22.0625 8.95817C22.0834 8.81234 22.1667 8.68734 22.2917 8.62484C22.4167 8.5415 22.5625 8.52067 22.7084 8.5415L27.75 9.62484C27.921 9.27813 28.1816 8.98348 28.5049 8.77146C28.8282 8.55943 29.2022 8.43776 29.5884 8.41905C29.9745 8.40034 30.3586 8.48528 30.7008 8.66507C31.0431 8.84485 31.331 9.11292 31.5347 9.44148C31.7384 9.77003 31.8505 10.1471 31.8593 10.5336C31.8682 10.9201 31.7735 11.3019 31.585 11.6394C31.3965 11.9769 31.1212 12.2579 30.7876 12.4532C30.4539 12.6484 30.0741 12.7509 29.6875 12.7498C28.5209 12.7498 27.5834 11.8332 27.5209 10.6873L23 9.729L21.625 16.229C24.8125 16.3332 27.6667 17.3123 29.75 18.8123C30.0694 18.5074 30.4515 18.2759 30.8697 18.134C31.2879 17.9922 31.7321 17.9434 32.1711 17.9911C32.6101 18.0388 33.0334 18.1819 33.4113 18.4103C33.7892 18.6387 34.1127 18.947 34.3591 19.3134C34.6054 19.6799 34.7688 20.0958 34.8376 20.532C34.9065 20.9682 34.8792 21.4142 34.7577 21.8387C34.6362 22.2632 34.4234 22.6561 34.1342 22.9898C33.8449 23.3235 33.4863 23.59 33.0834 23.7707Z" fill="white"/>
</svg>
