<svg width="40" height="40" viewBox="0 0 40 40" fill="none" xmlns="http://www.w3.org/2000/svg">
<path d="M11.6667 11.6665H8.33333C7.44928 11.6665 6.60143 12.0177 5.97631 12.6428C5.35119 13.2679 5 14.1158 5 14.9998V28.3332H8.33333V21.6665H11.6667V28.3332H15V14.9998C15 14.1158 14.6488 13.2679 14.0237 12.6428C13.3986 12.0177 12.5507 11.6665 11.6667 11.6665ZM11.6667 18.3332H8.33333V14.9998H11.6667M23.3333 11.6665H16.6667V28.3332H20V21.6665H23.3333C24.2174 21.6665 25.0652 21.3153 25.6904 20.6902C26.3155 20.0651 26.6667 19.2172 26.6667 18.3332V14.9998C26.6667 14.1158 26.3155 13.2679 25.6904 12.6428C25.0652 12.0177 24.2174 11.6665 23.3333 11.6665ZM23.3333 18.3332H20V14.9998H23.3333M33.3333 14.9998V24.9998H35V28.3332H28.3333V24.9998H30V14.9998H28.3333V11.6665H35V14.9998H33.3333Z" fill="white"/>
</svg>
