<svg width="40" height="50" viewBox="0 0 40 50" fill="none" xmlns="http://www.w3.org/2000/svg">
<path d="M25.47 3.69726C25.774 4.16874 25.929 4.80507 26.2378 6.07617L33.0053 33.8637C30.4634 32.2146 27.7352 31.06 24.9147 30.4398L20.509 11.8281C20.4743 11.6793 20.4018 11.5487 20.3025 11.4558C20.2033 11.3629 20.0826 11.3128 19.9586 11.3129C19.8346 11.3131 19.714 11.3636 19.6149 11.4568C19.5158 11.5499 19.4436 11.6808 19.409 11.8297L15.0562 30.4305C12.2234 31.0481 9.48298 32.2044 6.9303 33.8594L13.7297 6.07031C14.0409 4.80078 14.1959 4.16562 14.4997 3.69413C14.7682 3.27912 15.117 2.95669 15.5131 2.75742C15.9609 2.53281 16.4931 2.53281 17.5553 2.53281H22.4125C23.4756 2.53281 24.0078 2.53281 24.4572 2.75898C24.8535 2.95822 25.2021 3.28128 25.47 3.69726Z" fill="url(#paint0_linear_15_16)"/>
<path d="M26.2794 35.1852C25.1637 36.3785 22.9369 37.1918 20.3722 37.1918C17.2253 37.1918 14.5862 35.9664 13.8866 34.3184C13.6366 35.2629 13.5803 36.3434 13.5803 37.0348C13.5803 37.0348 13.4156 40.4234 15.3016 42.7809C15.3016 42.4899 15.3474 42.2018 15.4365 41.933C15.5256 41.6642 15.6561 41.42 15.8207 41.2143C15.9853 41.0086 16.1807 40.8454 16.3958 40.7341C16.6108 40.6228 16.8413 40.5656 17.0741 40.5656C18.7522 40.5656 18.7512 42.3949 18.75 43.8812V44.0125C18.75 46.2676 19.8522 48.1996 21.4197 49.0145C21.1781 48.3941 21.0528 47.713 21.0534 47.023C21.0534 44.8715 22.0628 44.0719 23.2372 43.141C24.1712 42.4012 25.2087 41.5785 25.9228 39.9293C26.3082 39.0406 26.5096 38.0456 26.5087 37.0348C26.5092 36.4071 26.4318 35.7832 26.2794 35.1852Z" fill="#FF5D01"/>
<path d="M26.2794 35.1852C25.1637 36.3785 22.9369 37.1918 20.3722 37.1918C17.2253 37.1918 14.5862 35.9664 13.8866 34.3184C13.6366 35.2629 13.5803 36.3434 13.5803 37.0348C13.5803 37.0348 13.4156 40.4234 15.3016 42.7809C15.3016 42.4899 15.3474 42.2018 15.4365 41.933C15.5256 41.6642 15.6561 41.42 15.8207 41.2143C15.9853 41.0086 16.1807 40.8454 16.3958 40.7341C16.6108 40.6228 16.8413 40.5656 17.0741 40.5656C18.7522 40.5656 18.7512 42.3949 18.75 43.8812V44.0125C18.75 46.2676 19.8522 48.1996 21.4197 49.0145C21.1781 48.3941 21.0528 47.713 21.0534 47.023C21.0534 44.8715 22.0628 44.0719 23.2372 43.141C24.1712 42.4012 25.2087 41.5785 25.9228 39.9293C26.3082 39.0406 26.5096 38.0456 26.5087 37.0348C26.5092 36.4071 26.4318 35.7832 26.2794 35.1852Z" fill="url(#paint1_linear_15_16)"/>
<defs>
<linearGradient id="paint0_linear_15_16" x1="27.5936" y1="1.0591" x2="16.1776" y2="32.4867" gradientUnits="userSpaceOnUse">
<stop stop-color="white"/>
<stop offset="1" stop-color="#7E00FB"/>
</linearGradient>
<linearGradient id="paint1_linear_15_16" x1="31.3025" y1="25.4863" x2="21.9589" y2="41.1346" gradientUnits="userSpaceOnUse">
<stop stop-color="#FF1639"/>
<stop offset="1" stop-color="#FF1639" stop-opacity="0"/>
</linearGradient>
</defs>
</svg>
