<svg width="30" height="33" viewBox="0 0 30 33" fill="none" xmlns="http://www.w3.org/2000/svg">
<path d="M15 0L0 8.25V24.75L15 33L30 24.75V8.25L15 0ZM15 1.93875L28.2352 9.21937V23.7806L15 31.0613L1.76479 23.7806V9.21937L15 1.93875ZM6.20058 11.4592C4.31602 11.4592 3.33911 12.7738 2.48629 14.773V23.3833L15 30.2692L27.5137 23.3833V15.1731C26.8687 14.8101 26.2237 14.6066 25.5859 14.6066C19.417 14.6066 19.8571 21.3235 15.8932 22.5816C11.9278 23.8425 10.8268 11.4592 6.20058 11.4592ZM24.0418 12.0876C19.8571 12.0876 20.9582 18.5941 16.3333 18.5941C13.9812 18.5941 12.697 16.7832 11.316 15.8702C11.5296 16.3185 11.7489 16.7709 11.9538 17.2178C12.6277 18.6863 13.2843 20.0915 13.9437 20.977C14.2727 21.4197 14.6003 21.7209 14.873 21.8625C14.9894 21.934 15.1223 21.9776 15.2603 21.9896C15.3982 22.0015 15.5372 21.9815 15.6652 21.9312C16.4704 21.6741 17.062 21.1461 17.6277 20.4023C18.1905 19.6584 18.6955 18.7137 19.2929 17.7677C19.8889 16.8217 20.583 15.8634 21.5873 15.1305C22.5902 14.3962 23.9062 13.9191 25.5844 13.9191C26.2554 13.9191 26.8947 14.1061 27.5137 14.4031V14.2368C26.6003 13.0694 25.5685 12.0876 24.0418 12.0876ZM14.4026 12.2966C13.1501 12.2966 12.2511 13.4241 11.4069 15.1291C11.5426 15.2048 11.684 15.2749 11.8066 15.3588C13.3362 16.4051 14.4012 17.9066 16.3333 17.9066C17.3117 17.9066 17.873 17.6069 18.3795 17.1022C17.3377 14.9765 16.3131 12.3007 14.4026 12.2966Z" fill="#FF59BD"/>
</svg>
