<svg width="30" height="35" viewBox="0 0 30 35" fill="none" xmlns="http://www.w3.org/2000/svg">
<path d="M0 0L2.72913 31.4895L14.983 35L27.2692 31.4772L30 0H0ZM24.3288 7.21525L23.4191 17.7047L23.4225 17.7625L23.4191 17.892L22.7717 25.2245L22.7019 25.8773L15 28.0648L14.9932 28.0718L7.30664 25.8703L6.78535 19.8065H10.5537L10.8211 22.89L15 24.0537L19.1925 22.8743L19.6354 17.8535H10.8722L10.7973 17.0048L10.6252 15.0168L10.5366 13.9492H19.971L20.3152 10.0432H5.94037L5.86542 9.1945L5.69506 7.20475L5.60477 6.13725H24.4191L24.3288 7.21525Z" fill="#47B6F4"/>
</svg>
