<svg width="100" height="50" viewBox="0 0 100 40" fill="none" xmlns="http://www.w3.org/2000/svg">
<path d="M75.5648 9.26275C77.9088 9.26275 80.0752 9.54696 82.7031 10.1568L80.8305 14.6733C79.3744 14.3479 80.7139 14.6297 79.6137 14.5078V15.1585L79.6844 17.8008L79.7195 21.2162C79.7551 22.0698 79.7551 22.9237 79.7908 23.7775V25.4852C79.7908 30.8522 79.4002 33.3728 78.2283 35.4461C76.5238 38.4958 73.5762 40 69.3859 40C67.2551 40 65.4088 39.6342 63.4908 38.7802V33.0069H63.4912C65.4092 34.1451 67.3266 34.6735 69.3506 34.6735C72.9371 34.6735 74.4643 33.0069 74.4643 29.0221V28.9003C73.399 29.5098 72.3334 29.754 70.9133 29.754C66.1191 29.754 63.0646 26.1355 63.0646 20.403C63.0646 13.2873 67.575 9.26252 75.5646 9.26252L75.5648 9.26275ZM25.959 9.66905V24.1836C25.959 29.1847 25.6393 31.5832 24.6807 33.657C23.7926 35.6494 22.6205 36.9094 20.2061 38.292L15.1277 35.5273C17.5426 34.2263 18.7143 33.0883 19.46 31.3392C20.2414 29.5503 20.4902 27.4767 20.4902 22.0288V9.66928L25.959 9.66905ZM91.193 9.14043C96.6617 9.14043 100 13.0845 100 19.4676C100 26.0139 96.5201 30.1201 90.9799 30.1201C85.5107 30.1201 82.1371 26.1762 82.1371 19.8339C82.1375 13.2466 85.6178 9.14043 91.193 9.14043ZM36.5068 9.22205C39.3123 9.22205 41.1588 10.0756 41.9756 11.7426C42.4371 12.6778 42.5791 13.8974 42.5791 16.4998V29.2252C40.1285 29.6317 37.0393 29.9166 34.7666 29.9166C30.1857 29.9166 28.1256 28.0863 28.1256 24.021C28.1256 19.6297 30.86 17.597 37.5721 16.9463V15.564C37.5721 14.4258 37.075 14.0195 35.6898 14.0195C33.6658 14.0195 31.393 14.6697 29.2621 15.9305V11.0921C31.6773 9.79159 33.9854 9.22205 36.5068 9.22205ZM17.2588 0V28.9819C14.4535 29.5917 12.3936 29.8356 10.1566 29.8356C3.48008 29.8356 0 26.3797 0 19.7525C0 13.3692 3.69336 9.2225 9.41074 9.2225C10.2984 9.2225 10.9732 9.30344 11.79 9.54741V0H17.2588ZM53.8365 9.22227C56.642 9.22227 58.6662 9.95394 59.874 11.377C61.0104 12.7185 61.3652 14.182 61.3652 17.3131V29.5915H55.8963V17.557C55.8963 15.1583 55.1861 14.2634 53.233 14.2634C52.4873 14.2634 51.8127 14.3448 50.7115 14.7106V29.5915H45.2428V10.6449C48.4742 9.66928 51.1375 9.22227 53.8365 9.22227ZM37.8207 21.0534C34.1982 21.46 33.0264 22.1107 33.0264 23.7368C33.0264 24.9564 33.7014 25.5257 35.1928 25.5257C36.0096 25.5257 36.7553 25.4445 37.8207 25.2413V21.0534ZM91.1223 14.1822C88.9557 14.1822 87.7123 16.1746 87.7123 19.6301C87.7127 23.0863 88.9557 25.0785 91.0859 25.0785C93.1816 25.0785 94.4246 23.0861 94.4246 19.6301C94.4246 16.2151 93.217 14.1822 91.1223 14.1822ZM9.94355 14.2634C7.17363 14.2634 5.57539 16.2151 5.57539 19.6301C5.57539 22.9642 7.10273 24.7938 9.90801 24.7938C10.5115 24.7938 11.0088 24.7531 11.79 24.6315V14.5886C11.1508 14.3448 10.6182 14.2634 9.94355 14.2634ZM70.6291 15.1981C69.3156 16.0523 68.6404 17.5975 68.6404 19.7927C68.6404 22.9237 69.9902 24.7124 72.4049 24.7124C73.1506 24.7124 73.7545 24.5496 74.4645 24.3059V22.1514C74.4645 21.4195 74.4293 20.606 74.4293 19.7525L74.3939 16.8658L74.3582 14.7923V14.3041H73.7898C72.7248 14.2634 71.4818 14.5886 70.6293 15.1983L70.6291 15.1981ZM25.959 0.033542V6.45751H20.4902V0.0333184H25.959V0.033542Z" fill="#84FFD1"/>
</svg>
