<svg width="25" height="25" viewBox="0 0 25 25" fill="none" xmlns="http://www.w3.org/2000/svg">
<g clip-path="url(#clip0_136_10)">
<path d="M19.1406 0H5.85938C2.62333 0 0 2.62333 0 5.85938V19.1406C0 22.3767 2.62333 25 5.85938 25H19.1406C22.3767 25 25 22.3767 25 19.1406V5.85938C25 2.62333 22.3767 0 19.1406 0Z" fill="#242938"/>
<path d="M22.2656 17.865C21.9813 17.9727 21.6674 17.9724 21.3833 17.8644C21.0992 17.7563 20.8644 17.5479 20.7235 17.2786C19.8385 15.9537 18.8611 14.6885 17.9218 13.3962L17.5145 12.8533C16.3959 14.3519 15.2773 15.7908 14.2565 17.284C14.1236 17.5415 13.9016 17.7418 13.6319 17.8477C13.3621 17.9536 13.0631 17.9578 12.7905 17.8596L16.9878 12.2288L13.0837 7.14096C13.3647 7.03947 13.6722 7.03808 13.9541 7.137C14.2361 7.23592 14.4752 7.4291 14.6313 7.68393C15.538 9.00893 16.5426 10.2741 17.5416 11.6153C18.5462 10.2849 19.5398 9.0143 20.4684 7.70024C20.6021 7.44697 20.8242 7.25169 21.0925 7.15157C21.3608 7.05145 21.6566 7.05348 21.9235 7.15727L20.4086 9.16635C19.7299 10.0622 19.062 10.9636 18.3562 11.8378C18.2992 11.8887 18.2537 11.9511 18.2225 12.0208C18.1914 12.0905 18.1752 12.166 18.1752 12.2424C18.1752 12.3187 18.1914 12.3942 18.2225 12.4639C18.2537 12.5337 18.2992 12.596 18.3562 12.6469C19.6539 14.3682 20.9407 16.0949 22.2656 17.865ZM2.73438 12.1582C2.84844 11.6153 2.91895 11.0234 3.07646 10.4696C4.01582 7.13022 7.84385 5.74008 10.4773 7.80893C12.0194 9.01986 12.405 10.7357 12.329 12.6687H3.64121C3.5 16.1221 5.99229 18.2072 9.17959 17.1429C9.69662 16.9579 10.1595 16.6471 10.5263 16.2386C10.8932 15.83 11.1525 15.3365 11.281 14.8026C11.4493 14.2596 11.7208 14.1673 12.2366 14.3247C12.1517 14.9858 11.918 15.619 11.5531 16.1767C11.1882 16.7344 10.7016 17.2021 10.1299 17.5447C9.18532 18.0612 8.10159 18.2659 7.03368 18.1294C5.96578 17.9928 4.9684 17.5221 4.18418 16.7845C3.40833 15.9122 2.93922 14.8099 2.84844 13.646C2.84844 13.4615 2.77783 13.2768 2.73984 13.1031C2.73625 12.7881 2.73443 12.4732 2.73438 12.1582ZM3.65205 11.9247H11.5091C11.4602 9.42162 9.88008 7.64604 7.77334 7.62983C5.42764 7.59721 3.7498 9.33471 3.64658 11.9139L3.65205 11.9247Z" fill="white"/>
</g>
<defs>
<clipPath id="clip0_136_10">
<rect width="25" height="25" fill="white"/>
</clipPath>
</defs>
</svg>
