<svg width="35" height="35" viewBox="0 0 35 35" fill="none" xmlns="http://www.w3.org/2000/svg">
<g clip-path="url(#clip0_103_124)">
<path d="M12.4414 35.2734C15.6953 35.2734 18.3203 32.6484 18.3203 29.3945V23.5156H12.4414C9.1875 23.5156 6.5625 26.1406 6.5625 29.3945C6.5625 32.6484 9.1875 35.2734 12.4414 35.2734Z" fill="#0ACF83"/>
<path d="M6.5625 17.6367C6.5625 14.3828 9.1875 11.7578 12.4414 11.7578H18.3203V23.5156H12.4414C9.1875 23.5156 6.5625 20.8906 6.5625 17.6367Z" fill="#A259FF"/>
<path d="M6.5625 5.87891C6.5625 2.625 9.1875 0 12.4414 0H18.3203V11.7578H12.4414C9.1875 11.7578 6.5625 9.13281 6.5625 5.87891Z" fill="#F24E1E"/>
<path d="M18.3203 0H24.1992C27.4531 0 30.0781 2.625 30.0781 5.87891C30.0781 9.13281 27.4531 11.7578 24.1992 11.7578H18.3203V0Z" fill="#FF7262"/>
<path d="M30.0781 17.6367C30.0781 20.8906 27.4531 23.5156 24.1992 23.5156C20.9453 23.5156 18.3203 20.8906 18.3203 17.6367C18.3203 14.3828 20.9453 11.7578 24.1992 11.7578C27.4531 11.7578 30.0781 14.3828 30.0781 17.6367Z" fill="#1ABCFE"/>
</g>
<defs>
<clipPath id="clip0_103_124">
<rect width="35" height="35" fill="white"/>
</clipPath>
</defs>
</svg>
