<svg width="25" height="35" viewBox="0 0 25 35" fill="none" xmlns="http://www.w3.org/2000/svg">
<path d="M0.827002 22.8581L4.22997 0.671833C4.25495 0.507528 4.33029 0.355344 4.44533 0.236815C4.56037 0.118286 4.70928 0.0394157 4.871 0.0113643C5.03271 -0.0166871 5.19903 0.00750113 5.34643 0.0805064C5.49383 0.153512 5.61484 0.271637 5.69233 0.418166L9.35256 7.37914L0.827002 22.8581ZM25 28.2411L21.7593 7.8235C21.7349 7.6806 21.6724 7.5472 21.5785 7.43776C21.4846 7.32833 21.3629 7.24703 21.2266 7.20269C21.0904 7.15834 20.9447 7.15265 20.8055 7.18623C20.6663 7.2198 20.5388 7.29136 20.4368 7.39314L0 28.2411L11.3087 34.6982C12.0183 35.1006 12.8833 35.1006 13.5929 34.6982L25 28.2411ZM15.8097 10.4232L13.1906 5.34456C13.1244 5.21707 13.0251 5.11033 12.9034 5.03586C12.7817 4.9614 12.6422 4.92204 12.5 4.92204C12.3578 4.92204 12.2183 4.9614 12.0966 5.03586C11.9749 5.11033 11.8756 5.21707 11.8094 5.34456L0.309047 26.2275L15.8097 10.4232Z" fill="#FFD600"/>
</svg>
