<svg width="30" height="30" viewBox="0 0 30 30" fill="none" xmlns="http://www.w3.org/2000/svg">
<path fill-rule="evenodd" clip-rule="evenodd" d="M29.4338 13.6665L16.3347 0.56549C15.9724 0.203402 15.4811 0 14.9689 0C14.4567 0 13.9655 0.203402 13.6032 0.56549L10.8838 3.28799L14.3337 6.73799C14.7405 6.60004 15.1778 6.57902 15.5959 6.67732C16.0141 6.77562 16.3962 6.9893 16.6989 7.29405C17.0016 7.59879 17.2127 7.98237 17.3082 8.40116C17.4037 8.81995 17.3798 9.25714 17.2391 9.663L20.5645 12.9885C21.0615 12.8177 21.6019 12.8223 22.0958 13.0017C22.5897 13.1811 23.0072 13.5243 23.2788 13.9741C23.5503 14.424 23.6595 14.9534 23.5881 15.474C23.5167 15.9946 23.2691 16.475 22.8864 16.8351C22.5038 17.1953 22.0093 17.4134 21.4853 17.4531C20.9614 17.4929 20.4396 17.3518 20.007 17.0535C19.5744 16.7552 19.2571 16.3177 19.108 15.8138C18.9589 15.3099 18.987 14.7702 19.1876 14.2845L16.0857 11.1825V19.344C16.557 19.5772 16.9341 19.9649 17.1542 20.4425C17.3743 20.9201 17.4241 21.4587 17.2952 21.9685C17.1663 22.4784 16.8666 22.9286 16.446 23.2443C16.0254 23.5599 15.5093 23.7218 14.9838 23.703C14.4583 23.6843 13.9551 23.4859 13.5581 23.1411C13.1611 22.7963 12.8942 22.3258 12.802 21.8081C12.7099 21.2903 12.7979 20.7567 13.0515 20.296C13.3051 19.8353 13.709 19.4755 14.1957 19.2765V11.0415C13.915 10.9265 13.6599 10.757 13.445 10.5429C13.2301 10.3288 13.0597 10.0742 12.9437 9.79396C12.8277 9.51366 12.7683 9.21318 12.769 8.90982C12.7697 8.60647 12.8305 8.30625 12.9477 8.02649L9.54735 4.62299L0.565602 13.6035C0.203434 13.966 0 14.4575 0 14.97C0 15.4825 0.203434 15.974 0.565602 16.3365L13.6647 29.4345C14.027 29.7966 14.5182 30 15.0304 30C15.5426 30 16.0339 29.7966 16.3962 29.4345L29.4338 16.3965C29.6133 16.2171 29.7557 16.0041 29.8528 15.7696C29.95 15.5351 30 15.2838 30 15.03C30 14.7762 29.95 14.5249 29.8528 14.2904C29.7557 14.0559 29.6133 13.8429 29.4338 13.6635" fill="#FA7E7E"/>
</svg>
