<svg width="30" height="35" viewBox="0 0 30 35" fill="none" xmlns="http://www.w3.org/2000/svg">
<path fill-rule="evenodd" clip-rule="evenodd" d="M30 9.37535L15 0L0 9.37535V25.6246L2.32154 27.0756L7.06846 25.0191C7.70726 24.742 8.25429 24.267 8.63952 23.6549C9.02474 23.0428 9.23062 22.3215 9.23077 21.5833V8.84887H11.5385V21.5833C11.5383 22.8139 11.1951 24.0163 10.5529 25.0366C9.91075 26.057 8.99877 26.8487 7.93385 27.3104L4.84154 28.6501L15 35L30 25.6271V9.37535ZM13.8462 13.7924C13.8462 12.4813 14.3324 11.2239 15.198 10.2968C16.0635 9.3697 17.2375 8.84887 18.4615 8.84887H21.1546C23.49 8.84887 25.3846 10.8757 25.3846 13.3796V13.7924H23.0769V13.3796C23.0769 13.1092 23.0272 12.8415 22.9306 12.5917C22.834 12.3419 22.6924 12.1149 22.5139 11.9237C22.3354 11.7325 22.1235 11.5808 21.8902 11.4774C21.657 11.3739 21.4071 11.3206 21.1546 11.3206H18.4615C17.8495 11.3206 17.2625 11.581 16.8298 12.0446C16.397 12.5081 16.1538 13.1368 16.1538 13.7924C16.1538 14.4479 16.397 15.0766 16.8298 15.5402C17.2625 16.0037 17.8495 16.2641 18.4615 16.2641H20.7692C21.9933 16.2641 23.1672 16.785 24.0328 17.712C24.8984 18.6391 25.3846 19.8965 25.3846 21.2076C25.3846 22.5187 24.8984 23.7761 24.0328 24.7032C23.1672 25.6303 21.9933 26.1511 20.7692 26.1511H18.4615C17.2375 26.1511 16.0635 25.6303 15.198 24.7032C14.3324 23.7761 13.8462 22.5187 13.8462 21.2076H16.1538C16.1538 21.8632 16.397 22.4919 16.8298 22.9554C17.2625 23.419 17.8495 23.6794 18.4615 23.6794H20.7692C21.3813 23.6794 21.9682 23.419 22.401 22.9554C22.8338 22.4919 23.0769 21.8632 23.0769 21.2076C23.0769 20.5521 22.8338 19.9234 22.401 19.4598C21.9682 18.9963 21.3813 18.7359 20.7692 18.7359H18.4615C17.2375 18.7359 16.0635 18.215 15.198 17.288C14.3324 16.3609 13.8462 15.1035 13.8462 13.7924Z" fill="#46FF4E"/>
</svg>
