<svg width="50" height="40" viewBox="0 0 50 40" fill="none" xmlns="http://www.w3.org/2000/svg">
<path d="M28.0502 35H46.6374C47.2279 35 47.8076 34.8385 48.3192 34.5314C48.8271 34.2276 49.2515 33.7856 49.5497 33.25C49.844 32.7208 49.9995 32.1162 50 31.5C50 30.8857 49.844 30.2821 49.5483 29.75L37.0658 7.25023C36.7675 6.71476 36.3431 6.27292 35.8353 5.9691C35.3214 5.66128 34.7426 5.49995 34.154 5.50054C33.5654 5.49995 32.9866 5.66128 32.4727 5.9691C31.9648 6.27287 31.5403 6.71471 31.242 7.25023L28.0502 13.0069L21.81 1.7497C21.5115 1.21426 21.0868 0.77253 20.5788 0.468856C20.0648 0.161004 19.4859 -0.000414085 18.8972 1.17838e-06C18.3086 -0.000503042 17.7296 0.160815 17.2156 0.468565C16.7076 0.77236 16.2831 1.21419 15.9846 1.7497L0.451386 29.75C0.156525 30.279 0.000552104 30.8837 0 31.5C0 32.1141 0.154893 32.718 0.45003 33.25C0.748376 33.7855 1.17284 34.2274 1.68076 34.5311C2.19479 34.8391 2.77385 35.0006 3.36261 35H15.0298C19.6527 35 23.0619 32.8871 25.4076 28.7643L31.1025 18.5001L34.1529 13.0072L43.3081 29.507H31.1025L28.0502 35ZM14.8396 29.5015L6.69728 29.4995L18.9026 7.50081L24.9925 18.5001L20.9151 25.8519C19.3573 28.5268 17.5875 29.5015 14.8396 29.5015Z" fill="#00DC82"/>
</svg>
