<svg width="35" height="20" viewBox="0 0 35 20" fill="none" xmlns="http://www.w3.org/2000/svg">
<path d="M17.5 0C7.68688 0 0 4.39231 0 10C0 15.6077 7.68688 20 17.5 20C27.3131 20 35 15.6077 35 10C35 4.39231 27.3131 0 17.5 0ZM15.6829 3.07692H17.5933L16.9867 6.15385H18.6929C19.775 6.15385 20.5013 6.31385 20.9154 6.71231C21.3194 7.10615 21.4419 7.75231 21.28 8.63231L20.5217 12.3077H18.5792L19.2777 8.90923C19.3623 8.44308 19.3288 8.11846 19.18 7.94769C19.0327 7.77692 18.7075 7.69231 18.2204 7.69231H16.6906L15.7675 12.3077H13.8542L15.6829 3.07692ZM7.29167 6.15385H11.1796C13.0331 6.15385 14.156 7.46462 13.7171 9.42C13.2067 11.6923 11.8417 12.3077 9.3275 12.3077H8.12583L7.74521 14.6154H5.81292L7.29167 6.15385ZM22.6042 6.15385H26.4921C28.3456 6.15385 29.4685 7.46462 29.0296 9.42C28.5192 11.6923 27.1527 12.3077 24.64 12.3077H23.4383L23.0577 14.6154H21.1254L22.6042 6.15385ZM8.94688 7.69231L8.39708 10.7692H9.64396C10.7231 10.7692 11.7265 10.64 11.8942 8.94154C11.9569 8.28462 11.6973 7.69231 10.4504 7.69231H8.94688ZM24.2594 7.69231L23.7096 10.7692H24.9565C26.0356 10.7692 27.039 10.64 27.2067 8.94154C27.2694 8.28462 27.0113 7.69231 25.7629 7.69231H24.2594Z" fill="#9C4EFF"/>
</svg>
