<svg width="40" height="40" viewBox="0 0 40 40" fill="none" xmlns="http://www.w3.org/2000/svg">
<path d="M19.8563 2.625C10.9813 2.625 11.5425 6.4625 11.5425 6.4625V10.45H19.9825V11.7H8.18125C8.18125 11.7 2.5 11 2.5 20.0062C2.5 29.0125 7.51625 28.6463 7.51625 28.6463H10.4125V24.445C10.4125 24.445 10.25 19.4288 15.2875 19.4288H23.74C23.74 19.4288 28.455 19.5037 28.455 14.8637V7.25C28.455 7.25 29.17 2.61 19.9025 2.61L19.8563 2.625ZM15.1912 5.29625C15.4913 5.28868 15.7869 5.37026 16.0405 5.53067C16.2942 5.69108 16.4946 5.92312 16.6164 6.19744C16.7383 6.47175 16.776 6.77603 16.7248 7.07179C16.6737 7.36755 16.536 7.6415 16.3292 7.859C16.1223 8.0765 15.8557 8.22778 15.5628 8.29371C15.27 8.35964 14.9642 8.33725 14.6841 8.22938C14.4041 8.12151 14.1622 7.933 13.9893 7.68769C13.8163 7.44239 13.72 7.1513 13.7125 6.85125V6.82625C13.7125 6.42378 13.8724 6.0378 14.157 5.75322C14.4416 5.46863 14.8275 5.30875 15.23 5.30875L15.1912 5.29625Z" fill="url(#paint0_linear_1_8)"/>
<path d="M20.1063 37.3875C28.9813 37.3875 28.42 33.5375 28.42 33.5375V29.5625H19.9813V28.3125H31.8188C31.8188 28.3125 37.5 28.9475 37.5 19.9937C37.5 11.04 32.4838 11.3537 32.4838 11.3537H29.55V15.5C29.55 15.5 29.7125 20.5162 24.675 20.5162H16.2188C16.2188 20.5162 11.5 20.445 11.5 25.085V32.75C11.5 32.75 10.785 37.39 20.0525 37.39H20.1025L20.1063 37.3875ZM24.7713 34.7037C24.4712 34.7113 24.1756 34.6297 23.922 34.4693C23.6683 34.3089 23.4679 34.0769 23.3461 33.8026C23.2243 33.5282 23.1865 33.224 23.2377 32.9282C23.2888 32.6324 23.4265 32.3585 23.6333 32.141C23.8402 31.9235 24.1068 31.7722 24.3997 31.7063C24.6925 31.6404 24.9983 31.6627 25.2784 31.7706C25.5585 31.8785 25.8003 32.067 25.9732 32.3123C26.1462 32.5576 26.2425 32.8487 26.25 33.1487V33.1862C26.25 33.5887 26.0901 33.9747 25.8055 34.2593C25.521 34.5439 25.135 34.7037 24.7325 34.7037H24.7713Z" fill="url(#paint1_linear_1_8)"/>
<defs>
<linearGradient id="paint0_linear_1_8" x1="5.95895" y1="6.02863" x2="22.5673" y2="22.5993" gradientUnits="userSpaceOnUse">
<stop stop-color="#387EB8"/>
<stop offset="1" stop-color="#366994"/>
</linearGradient>
<linearGradient id="paint1_linear_1_8" x1="15.7844" y1="16.8232" x2="34.7596" y2="33.3889" gradientUnits="userSpaceOnUse">
<stop stop-color="#FFE052"/>
<stop offset="1" stop-color="#FFC331"/>
</linearGradient>
</defs>
</svg>
