<svg width="35" height="30" viewBox="0 0 35 30" fill="none" xmlns="http://www.w3.org/2000/svg">
<path d="M17.5 12.0521C19.1767 12.0521 20.5442 13.3623 20.5442 15C20.5442 16.5597 19.1767 17.8855 17.5 17.8855C15.8233 17.8855 14.4558 16.5597 14.4558 15C14.4558 13.3623 15.8233 12.0521 17.5 12.0521ZM9.96279 27.4779C10.9884 28.0706 13.2349 27.1659 15.8233 24.8263C14.9767 23.9061 14.1465 22.9078 13.3651 21.8628C12.0533 21.7425 10.7491 21.5551 9.45814 21.3013C8.62791 24.6391 8.93721 26.932 9.96279 27.4779ZM11.1186 18.525L10.6465 17.7295C10.4674 18.1819 10.2884 18.6342 10.1744 19.0709C10.614 19.1645 11.1023 19.2425 11.607 19.3205L11.1186 18.525ZM21.7651 17.3396L23.0837 15L21.7651 12.6604C21.2767 11.8337 20.7558 11.1007 20.2837 10.3676C19.4047 10.3208 18.4767 10.3208 17.5 10.3208C16.5233 10.3208 15.5953 10.3208 14.7163 10.3676C14.2442 11.1007 13.7233 11.8337 13.2349 12.6604L11.9163 15L13.2349 17.3396C13.7233 18.1663 14.2442 18.8993 14.7163 19.6324C15.5953 19.6792 16.5233 19.6792 17.5 19.6792C18.4767 19.6792 19.4047 19.6792 20.2837 19.6324C20.7558 18.8993 21.2767 18.1663 21.7651 17.3396ZM17.5 6.8582C17.1907 7.20134 16.8651 7.56008 16.5395 7.9812H18.4605C18.1349 7.56008 17.8093 7.20134 17.5 6.8582ZM17.5 23.1418C17.8093 22.7987 18.1349 22.4399 18.4605 22.0188H16.5395C16.8651 22.4399 17.1907 22.7987 17.5 23.1418ZM25.0209 2.52214C24.0116 1.92944 21.7651 2.83409 19.1767 5.17368C20.0233 6.09393 20.8535 7.09216 21.6349 8.13718C22.9698 8.26195 24.2884 8.44912 25.5419 8.69868C26.3721 5.36085 26.0628 3.06805 25.0209 2.52214ZM23.8814 11.475L24.3535 12.2705C24.5326 11.8181 24.7116 11.3658 24.8256 10.9291C24.386 10.8355 23.8977 10.7575 23.393 10.6795L23.8814 11.475ZM26.2419 0.478889C28.6349 1.78906 28.8953 5.23607 27.886 9.26018C32.0209 10.43 35 12.3641 35 15C35 17.6359 32.0209 19.57 27.886 20.7398C28.8953 24.7639 28.6349 28.2109 26.2419 29.5211C23.8651 30.8313 20.6256 29.3339 17.5 26.4796C14.3744 29.3339 11.1349 30.8313 8.74186 29.5211C6.36512 28.2109 6.10465 24.7639 7.11395 20.7398C2.97907 19.57 0 17.6359 0 15C0 12.3641 2.97907 10.43 7.11395 9.26018C6.10465 5.23607 6.36512 1.78906 8.74186 0.478889C11.1349 -0.831286 14.3744 0.666057 17.5 3.52037C20.6256 0.666057 23.8651 -0.831286 26.2419 0.478889ZM25.7698 15C26.3233 16.1698 26.8116 17.3396 27.2186 18.525C30.6372 17.5424 32.5581 16.1386 32.5581 15C32.5581 13.8614 30.6372 12.4576 27.2186 11.475C26.8116 12.6604 26.3233 13.8302 25.7698 15ZM9.23023 15C8.67674 13.8302 8.18837 12.6604 7.7814 11.475C4.36279 12.4576 2.44186 13.8614 2.44186 15C2.44186 16.1386 4.36279 17.5424 7.7814 18.525C8.18837 17.3396 8.67674 16.1698 9.23023 15ZM23.8814 18.525L23.393 19.3205C23.8977 19.2425 24.386 19.1645 24.8256 19.0709C24.7116 18.6342 24.5326 18.1819 24.3535 17.7295L23.8814 18.525ZM19.1767 24.8263C21.7651 27.1659 24.0116 28.0706 25.0209 27.4779C26.0628 26.932 26.3721 24.6391 25.5419 21.3013C24.2884 21.5509 22.9698 21.738 21.6349 21.8628C20.8535 22.9078 20.0233 23.9061 19.1767 24.8263ZM11.1186 11.475L11.607 10.6795C11.1023 10.7575 10.614 10.8355 10.1744 10.9291C10.2884 11.3658 10.4674 11.8181 10.6465 12.2705L11.1186 11.475ZM15.8233 5.17368C13.2349 2.83409 10.9884 1.92944 9.96279 2.52214C8.93721 3.06805 8.62791 5.36085 9.45814 8.69868C10.7491 8.4449 12.0533 8.25746 13.3651 8.13718C14.1465 7.09216 14.9767 6.09393 15.8233 5.17368Z" fill="#00A8DD"/>
</svg>
