<svg width="35" height="35" viewBox="0 0 35 35" fill="none" xmlns="http://www.w3.org/2000/svg">
<path d="M17.4094 0.0012212C15.9453 0.00524472 14.4874 0.190975 13.0689 0.554165C6.24485 2.25351 0.828238 8.441 0.1338 15.4595C-0.726866 22.0982 2.62831 29.016 8.36316 32.4431C13.9974 35.9732 21.6231 35.832 27.137 32.119C32.0933 28.8966 35.1739 23.0278 34.9924 17.102C34.9082 11.2408 31.6208 5.5427 26.5902 2.53162C23.8508 0.837753 20.6279 -0.011918 17.4094 0.000126265V0.0012212ZM17.3121 2.47578C24.5222 2.46374 31.5858 8.04682 32.3087 15.5066C33.6877 23.7701 26.8352 32.1705 18.4735 32.4157C10.5219 33.2085 2.83172 26.456 2.60425 18.4608C2.01261 11.9886 6.27875 5.56131 12.3723 3.42181C13.9434 2.79525 15.6199 2.47597 17.311 2.48125L17.3121 2.47578ZM24.7399 7.1873C20.8204 10.2312 17.0671 13.4766 13.2341 16.6136C14.9882 16.6355 16.7544 16.6355 18.514 16.6235C20.57 13.4646 22.6839 10.3473 24.7399 7.1873ZM16.481 18.3589C14.425 21.5244 12.3067 24.6483 10.2485 27.8137C14.18 24.7742 17.9158 21.5069 21.7718 18.3874C20.0079 18.3673 18.2439 18.3582 16.4799 18.36L16.481 18.3589Z" fill="white"/>
</svg>
