<svg width="40" height="40" viewBox="0 0 40 40" fill="none" xmlns="http://www.w3.org/2000/svg">
<g clip-path="url(#clip0_1_4)">
<path d="M23.2869 39.335C22.2659 40.6216 20.1919 39.9169 20.169 38.2734L19.8078 14.2403H35.9687C38.8953 14.2403 40.5272 17.6206 38.7072 19.9119L23.2869 39.335Z" fill="url(#paint0_linear_1_4)"/>
<path d="M23.2869 39.335C22.2659 40.6216 20.1919 39.9169 20.169 38.2734L19.8078 14.2403H35.9687C38.8953 14.2403 40.5272 17.6206 38.7072 19.9119L23.2869 39.335Z" fill="url(#paint1_linear_1_4)" fill-opacity="0.2"/>
<path d="M16.7138 0.664997C17.7347 -0.621566 19.8091 0.0831218 19.8316 1.72625L19.9903 25.7597H4.03188C1.10532 25.7597 -0.526556 22.3794 1.29313 20.0881L16.7138 0.664997Z" fill="#3ECF8E"/>
</g>
<defs>
<linearGradient id="paint0_linear_1_4" x1="19.8093" y1="19.5707" x2="34.1718" y2="25.5943" gradientUnits="userSpaceOnUse">
<stop stop-color="#249361"/>
<stop offset="1" stop-color="#3ECF8E"/>
</linearGradient>
<linearGradient id="paint1_linear_1_4" x1="13.4416" y1="10.8522" x2="19.9915" y2="23.1827" gradientUnits="userSpaceOnUse">
<stop/>
<stop offset="1" stop-opacity="0"/>
</linearGradient>
<clipPath id="clip0_1_4">
<rect width="40" height="40" fill="white"/>
</clipPath>
</defs>
</svg>
