<svg width="30" height="35" viewBox="0 0 30 35" fill="none" xmlns="http://www.w3.org/2000/svg">
<path d="M28.0987 4.61537C26.5089 2.37389 24.0959 0.807364 21.3541 0.236888C18.6124 -0.333588 15.7496 0.135192 13.3526 1.54714L4.93011 6.74298C3.79185 7.4349 2.81638 8.35154 2.06712 9.43329C1.31786 10.515 0.811587 11.7377 0.58121 13.0218C0.171877 15.1798 0.526188 17.4086 1.58663 19.3466C0.862074 20.4034 0.375296 21.5967 0.158056 22.8484C-0.0803475 24.1538 -0.0487834 25.4921 0.25091 26.7855C0.550604 28.0789 1.11244 29.3015 1.90371 30.3821C3.49737 32.6183 5.90786 34.1826 8.64627 34.7577C11.3847 35.3328 14.246 34.8756 16.6498 33.4788L25.0779 28.2775C26.2121 27.5829 27.1836 26.6652 27.9298 25.5837C28.6759 24.5022 29.1801 23.281 29.4099 21.9987C29.8144 19.8476 29.4581 17.6269 28.3988 15.6969C29.4936 14.0314 30.05 12.0863 29.9965 10.1116C29.943 8.13681 29.2821 6.22272 28.0987 4.61537ZM12.5119 30.8333C11.1889 31.1672 9.79207 31.0985 8.51062 30.6364C7.22917 30.1744 6.125 29.3414 5.34762 28.2501C4.37155 26.9383 4.01384 25.3188 4.29594 23.7102L4.46069 22.9349L4.61303 22.4553L5.06552 22.7466C6.05655 23.4667 7.17087 24.0112 8.3571 24.3552L8.6629 24.4581L8.62792 24.7494C8.59858 25.1545 8.72158 25.6101 8.96306 25.9583C9.4573 26.6481 10.3149 26.9788 11.1432 26.762C11.3248 26.7051 11.502 26.6481 11.6543 26.5561L20.0475 21.3603C20.4706 21.0975 20.7414 20.7044 20.8464 20.2368C20.9341 19.7583 20.8265 19.2654 20.5462 18.8626C20.3059 18.535 19.969 18.2857 19.5799 18.1473C19.1908 18.0089 18.7677 17.988 18.3661 18.0873C18.1844 18.1497 17.9904 18.2187 17.8369 18.3096L14.6627 20.2653C13.214 21.1011 11.4927 21.3729 9.84572 21.0258C8.19874 20.6787 6.74862 19.7386 5.78771 18.395C5.30761 17.7453 4.96658 17.0088 4.78479 16.2291C4.60299 15.4493 4.58411 14.6421 4.72925 13.8551C4.87502 13.0758 5.18792 12.335 5.64765 11.6806C6.10739 11.0262 6.70371 10.4729 7.39795 10.0565L15.773 4.86065C16.3084 4.54291 16.8858 4.29721 17.4893 4.13028C18.8113 3.79751 20.2066 3.86563 21.4874 4.32549C22.7683 4.78535 23.8732 5.61488 24.6536 6.70247C25.2102 7.46278 25.5773 8.33806 25.7261 9.25942C25.8749 10.1808 25.8014 11.1231 25.5112 12.0122L25.3589 12.4973L24.9245 12.206C23.9217 11.4947 22.8034 10.951 21.6159 10.5974L21.3158 10.512L21.3451 10.2207C21.3731 9.78752 21.2555 9.35718 21.01 8.99433C20.7735 8.66259 20.437 8.40999 20.0466 8.27119C19.6563 8.13239 19.2313 8.11418 18.8299 8.21906C18.6516 8.26744 18.4799 8.33656 18.3187 8.42492L9.90867 13.6657C9.48551 13.9394 9.21469 14.3216 9.12668 14.8001C9.03866 15.2677 9.15602 15.7812 9.42684 16.1579C9.90867 16.8478 10.7843 17.139 11.5956 16.9332C11.7789 16.8878 11.9551 16.8185 12.1192 16.7273L15.3284 14.7421C15.8549 14.4091 16.4322 14.1589 17.0391 14.0007C18.3621 13.6641 19.7598 13.7315 21.0419 14.1937C22.3239 14.656 23.4279 15.4906 24.2034 16.5839C24.6832 17.2307 25.0258 17.9635 25.2114 18.7398C25.3969 19.5162 25.4218 20.3205 25.2844 21.1063C25.1454 21.8834 24.8391 22.6234 24.3855 23.2779C23.9319 23.9325 23.3411 24.4868 22.6518 24.9049L14.2587 30.0887C13.7128 30.4089 13.1259 30.6581 12.513 30.83L12.5119 30.8333Z" fill="#FE5B5B"/>
</svg>
