<svg width="60" height="40" viewBox="0 0 60 40" fill="none" xmlns="http://www.w3.org/2000/svg">
<path d="M30 0C22.0001 0 16.9999 4.44453 15 13.3333C18 8.8888 21.4999 7.22214 25.5 8.33333C27.7821 8.96719 29.4134 10.807 31.219 12.8432C34.1604 16.1607 37.5645 20 45 20C52.9999 20 58.0001 15.5555 60 6.66667C57 11.1112 53.5001 12.7779 49.5 11.6667C47.2179 11.0328 45.5866 9.19297 43.781 7.15677C40.8396 3.83932 37.4355 0 30 0ZM15 20C7.00008 20 1.99992 24.4445 0 33.3333C3 28.8888 6.49992 27.2221 10.5 28.3333C12.7821 28.9672 14.4134 30.807 16.219 32.8432C19.1604 36.1607 22.5645 40 30 40C37.9999 40 43.0001 35.5555 45 26.6667C42 31.1112 38.5001 32.7779 34.5 31.6667C32.2179 31.0328 30.5866 29.193 28.781 27.1568C25.8396 23.8393 22.4355 20 15 20Z" fill="url(#paint0_linear_1_3)"/>
<defs>
<linearGradient id="paint0_linear_1_3" x1="-166.68" y1="1280" x2="5273.18" y2="4102.87" gradientUnits="userSpaceOnUse">
<stop stop-color="#2298BD"/>
<stop offset="1" stop-color="#0ED7B5"/>
</linearGradient>
</defs>
</svg>
