<svg width="608" height="563" viewBox="0 0 608 563" fill="none" xmlns="http://www.w3.org/2000/svg">
<path d="M100 456.5C155.231 509.719 202.726 524.786 278 539.5C355.94 554.735 410.715 564.47 481 527.5C518.751 507.643 540.287 491.956 564 456.5C604.722 395.612 604.404 340.351 584 270C568.836 217.717 543.475 194.63 509 152.5C467.517 101.806 445.103 66.1698 385.5 39.0001C325.441 11.6227 280.157 -0.254718 217.5 20.5001C159.939 39.5669 139.005 75.5741 100 122C53.9456 176.817 13.0842 210.452 10.5 282C7.73558 358.537 44.8498 403.358 100 456.5Z" stroke="#64F6FF" stroke-width="19"/>
<path d="M125.153 434.35C174.535 480.993 217.001 494.198 284.305 507.093C353.992 520.445 402.968 528.977 465.811 496.576C499.564 479.173 518.82 465.425 540.022 434.35C576.433 380.988 576.148 332.556 557.904 270.899C544.346 225.077 521.67 204.843 490.846 167.92C453.755 123.49 433.715 92.2586 380.423 68.4466C326.723 44.4525 286.233 34.043 230.211 52.2328C178.745 68.9433 160.028 100.501 125.153 141.189C83.9747 189.231 47.4399 218.709 45.1293 281.416C42.6576 348.494 75.842 387.776 125.153 434.35Z" stroke="#00C0CC" stroke-width="19"/>
<path d="M150.534 415.554C193.991 456.023 231.361 467.48 290.589 478.669C351.913 490.254 395.012 497.656 450.313 469.544C480.017 454.444 496.961 442.515 515.619 415.554C547.661 369.254 547.41 327.232 531.356 273.736C519.425 233.979 499.47 216.423 472.344 184.386C439.704 145.837 422.069 118.739 375.172 98.0786C327.916 77.2603 292.285 68.2285 242.986 84.0108C197.696 98.5096 181.224 125.89 150.534 161.194C114.298 202.877 82.1471 228.454 80.1138 282.861C77.9387 341.061 107.141 375.144 150.534 415.554Z" stroke="#009AA4" stroke-width="19"/>
<path d="M173.931 398.402C210.239 432.894 241.462 442.659 290.946 452.195C342.183 462.069 378.191 468.378 424.396 444.418C449.213 431.548 463.37 421.381 478.959 398.402C505.73 358.94 505.52 323.125 492.107 277.53C482.138 243.645 465.466 228.682 442.803 201.378C415.532 168.522 400.798 145.427 361.615 127.818C322.133 110.074 292.364 102.376 251.174 115.828C213.335 128.185 199.573 151.521 173.931 181.61C143.656 217.137 116.794 238.936 115.095 285.307C113.278 334.912 137.676 363.961 173.931 398.402Z" stroke="#00767E" stroke-width="19"/>
<path d="M198.702 380.428C228.708 408.844 254.511 416.889 295.406 424.746C337.75 432.88 367.508 438.078 405.693 418.338C426.202 407.736 437.902 399.359 450.785 380.428C472.909 347.917 472.736 318.41 461.65 280.846C453.412 252.929 439.634 240.602 420.904 218.107C398.367 191.038 386.191 172.01 353.809 157.503C321.18 142.885 296.578 136.543 262.538 147.625C231.266 157.806 219.893 177.032 198.702 201.821C173.682 231.091 151.483 249.05 150.079 287.253C148.577 328.12 168.74 352.053 198.702 380.428Z" stroke="#006066" stroke-width="19"/>
<path d="M224.405 364.343C247.45 386.194 267.267 392.38 298.676 398.422C331.196 404.677 354.052 408.674 383.378 393.495C399.13 385.342 408.116 378.901 418.01 364.343C435.002 339.343 434.869 316.653 426.355 287.768C420.028 266.301 409.446 256.821 395.061 239.523C377.752 218.709 368.4 204.077 343.531 192.921C318.471 181.68 299.576 176.804 273.432 185.325C249.414 193.154 240.68 207.938 224.405 227C205.188 249.508 188.139 263.318 187.06 292.695C185.907 324.12 201.393 342.523 224.405 364.343Z" stroke="#006066" stroke-width="19"/>
</svg>
