<svg width="251" height="709" viewBox="0 0 251 709" fill="none" xmlns="http://www.w3.org/2000/svg">
<path d="M178.97 577V508.936H191.354L217.466 548.392H211.61L237.626 508.936H250.01V577H233.018V537.352L235.706 538.12L220.058 561.64H208.922L193.37 538.12L196.058 537.352V577H178.97ZM190.454 698V629.936H207.638V698H190.454ZM204.086 698V683.504H240.95V698H204.086ZM204.086 670.352V656.24H237.494V670.352H204.086ZM204.086 644.432V629.936H240.374V644.432H204.086Z" fill="#12FFF1"/>
<path d="M36.931 93L63.331 24.936H79.939L106.051 93H88.099L68.419 35.784H74.659L54.499 93H36.931ZM52.963 81.096V67.464H90.499V81.096H52.963ZM59.9613 214V201.232H74.1693C76.8573 201.232 78.9693 200.496 80.5053 199.024C82.1053 197.488 82.9053 195.504 82.9053 193.072C82.9053 191.472 82.5533 190.064 81.8493 188.848C81.1453 187.568 80.1213 186.608 78.7773 185.968C77.4973 185.264 75.9613 184.912 74.1693 184.912H59.9613V172.528H73.1133C75.3533 172.528 77.1773 171.984 78.5853 170.896C80.0573 169.744 80.7933 167.984 80.7933 165.616C80.7933 163.248 80.0573 161.52 78.5853 160.432C77.1773 159.28 75.3533 158.704 73.1133 158.704H59.9613V145.936H77.2413C81.4653 145.936 85.1133 146.736 88.1853 148.336C91.3213 149.936 93.7213 152.08 95.3853 154.768C97.0493 157.456 97.8813 160.496 97.8813 163.888C97.8813 168.432 96.3133 172.208 93.1772 175.216C90.1053 178.16 85.6253 179.984 79.7373 180.688V174.928C86.2653 175.696 91.2573 177.808 94.7133 181.264C98.1693 184.656 99.8973 188.944 99.8973 194.128C99.8973 197.968 98.9373 201.392 97.0173 204.4C95.0973 207.344 92.3773 209.68 88.8573 211.408C85.4013 213.136 81.3053 214 76.5693 214H59.9613ZM46.3293 214V145.936H63.2253V214H46.3293ZM71.5956 457.056C65.8356 457.056 60.7476 455.872 56.3316 453.504C51.9796 451.072 48.5876 447.712 46.1556 443.424C43.7236 439.136 42.5076 434.272 42.5076 428.832V387.936H59.5956V430.08C59.5956 432.512 60.1076 434.624 61.1316 436.416C62.2196 438.144 63.6596 439.488 65.4516 440.448C67.3076 441.344 69.3556 441.792 71.5956 441.792C73.8996 441.792 75.9156 441.344 77.6436 440.448C79.3716 439.488 80.7476 438.144 81.7716 436.416C82.7956 434.688 83.3076 432.608 83.3076 430.176V387.936H100.588V428.928C100.588 434.368 99.3716 439.232 96.9396 443.52C94.5076 447.744 91.1156 451.072 86.7636 453.504C82.4756 455.872 77.4196 457.056 71.5956 457.056ZM62.8881 577V509.416H80.0721V577H62.8881ZM42.0561 523.72V508.936H100.904V523.72H42.0561Z" fill="#12FFF1"/>
<circle cx="71" cy="300" r="35" fill="#12FFF1"/>
<path d="M214 26L213.959 477" stroke="#0AA097" stroke-width="22" stroke-linecap="round"/>
<path d="M71 698L71.5 621.998" stroke="#0AA097" stroke-width="22" stroke-linecap="round"/>
</svg>
