<svg width="100" height="100" viewBox="0 0 100 100" fill="none" xmlns="http://www.w3.org/2000/svg">
<circle cx="50" cy="50" r="50" fill="url(#paint0_linear_0_1)"/>
<path d="M39.8425 73V67.752H53.2825C55.8425 67.752 57.8478 67.0053 59.2985 65.512C60.7492 63.976 61.4745 62.1413 61.4745 60.008C61.4745 58.5573 61.1545 57.256 60.5145 56.104C59.8745 54.9093 58.9358 53.9707 57.6985 53.288C56.5038 52.6053 55.0958 52.264 53.4745 52.264H39.8425V47.016H52.5785C54.7118 47.016 56.3972 46.4613 57.6345 45.352C58.9145 44.2 59.5545 42.5573 59.5545 40.424C59.5545 38.2907 58.8932 36.6693 57.5705 35.56C56.2478 34.408 54.4985 33.832 52.3225 33.832H39.8425V28.584H52.4505C55.3518 28.584 57.7625 29.1173 59.6825 30.184C61.6452 31.208 63.1172 32.5733 64.0985 34.28C65.1225 35.9867 65.6345 37.864 65.6345 39.912C65.6345 42.3013 64.9732 44.392 63.6505 46.184C62.3705 47.976 60.4718 49.384 57.9545 50.408L58.4665 48.488C61.3252 49.512 63.5438 51.0693 65.1225 53.16C66.7438 55.208 67.5545 57.64 67.5545 60.456C67.5545 62.8027 66.9785 64.9147 65.8265 66.792C64.6745 68.6693 63.0105 70.184 60.8345 71.336C58.7012 72.4453 56.0772 73 52.9625 73H39.8425ZM35.8105 73V28.584H41.8265V73H35.8105Z" fill="white"/>
<defs>
<linearGradient id="paint0_linear_0_1" x1="23.5" y1="41" x2="50" y2="100" gradientUnits="userSpaceOnUse">
<stop stop-color="#3E1F7E"/>
<stop offset="1" stop-color="#3A84F3"/>
<stop offset="1" stop-color="#1162DB"/>
</linearGradient>
</defs>
</svg>
