<svg id="visual" viewBox="0 0 1000 1000" width="1000" height="1000" xmlns="http://www.w3.org/2000/svg" xmlns:xlink="http://www.w3.org/1999/xlink" version="1.1"><g transform="translate(431.04502842808876 522.9582703360891)"><path d="M362.7 -424.7C457.6 -352.6 513.4 -226.5 515.7 -106.7C518 13.1 466.9 126.5 404.4 232.4C342 338.2 268.3 436.5 176.6 458C84.9 479.6 -24.7 424.4 -118.2 370.6C-211.7 316.7 -289 264.1 -330.7 191.2C-372.5 118.4 -378.6 25.3 -377.8 -81.9C-377.1 -189 -369.5 -310.1 -305.4 -387.7C-241.3 -465.2 -120.6 -499.1 6.6 -507C133.9 -514.9 267.8 -496.9 362.7 -424.7" fill="none" stroke="#3A84F3" stroke-width="50"></path></g></svg>