<svg width="894" height="711" viewBox="0 0 894 711" fill="none" xmlns="http://www.w3.org/2000/svg">
<path d="M142.5 380C160.672 447.378 72.0392 492.464 104 554.5C139.18 622.786 219.999 586.183 291 615.5C351.94 640.663 376.664 686.469 442.5 690C504.9 693.347 531.557 640.901 594 638.5C662.183 635.879 699.504 713.888 762 686.5C837.515 653.406 794.477 561.899 820 483.5C838.602 426.36 889.107 395.954 871.5 338.5C855.245 285.458 786.704 297.673 762 248C728.059 179.754 849.72 98.5237 787.5 54.5C729.237 13.2762 687.543 125.848 616.5 119C543.814 111.994 531.498 20.9018 458.5 19C382.342 17.0159 365.98 105.512 291 119C218.048 132.123 169.923 52.6123 104 86.5C40.7738 119.002 10.2177 177.586 19.9999 248C29.677 317.658 124.186 312.099 142.5 380Z" stroke="#3A84F3" stroke-width="36"/>
</svg>
