<svg width="166" height="426" viewBox="0 0 166 426" fill="none" xmlns="http://www.w3.org/2000/svg">
<line x1="5.70386" y1="425.011" x2="5.70386" y2="43.99" stroke="url(#paint0_linear_0_1)" stroke-width="9.5"/>
<path d="M1.08 44V1.64H10.5V44H1.08ZM8.34 44V35.72H29.28V44H8.34ZM34.7128 44V1.64H44.1328V44H34.7128ZM52.2909 44V1.64H58.8909L61.7109 10.1V44H52.2909ZM81.5109 44L56.5509 12.02L58.8909 1.64L83.8509 33.62L81.5109 44ZM81.5109 44L78.9909 35.54V1.64H88.4109V44H81.5109ZM122.208 44L105.048 21.92L121.668 1.64H133.308L114.588 23.66V19.82L133.908 44H122.208ZM96.5878 44V1.64H106.008V44H96.5878ZM149.093 44.66C145.613 44.66 142.613 44.1 140.093 42.98C137.613 41.82 135.333 40.08 133.253 37.76L139.373 31.7C140.733 33.26 142.233 34.48 143.873 35.36C145.553 36.2 147.493 36.62 149.693 36.62C151.693 36.62 153.233 36.26 154.313 35.54C155.433 34.82 155.993 33.82 155.993 32.54C155.993 31.38 155.633 30.44 154.913 29.72C154.193 29 153.233 28.38 152.033 27.86C150.873 27.34 149.573 26.84 148.133 26.36C146.733 25.88 145.333 25.34 143.933 24.74C142.533 24.1 141.233 23.32 140.033 22.4C138.873 21.44 137.933 20.26 137.213 18.86C136.493 17.42 136.133 15.62 136.133 13.46C136.133 10.86 136.753 8.62 137.993 6.74C139.273 4.86 141.033 3.44 143.273 2.48C145.513 1.48 148.093 0.98 151.013 0.98C153.973 0.98 156.673 1.5 159.113 2.54C161.593 3.58 163.633 5 165.233 6.8L159.113 12.86C157.833 11.54 156.533 10.56 155.213 9.92C153.933 9.28 152.473 8.96 150.833 8.96C149.193 8.96 147.893 9.28 146.933 9.92C145.973 10.52 145.493 11.4 145.493 12.56C145.493 13.64 145.853 14.52 146.573 15.2C147.293 15.84 148.233 16.4 149.393 16.88C150.593 17.36 151.893 17.84 153.293 18.32C154.733 18.8 156.153 19.36 157.553 20C158.953 20.64 160.233 21.46 161.393 22.46C162.593 23.42 163.553 24.66 164.273 26.18C164.993 27.66 165.353 29.5 165.353 31.7C165.353 35.74 163.913 38.92 161.033 41.24C158.153 43.52 154.173 44.66 149.093 44.66Z" fill="#12FFF1"/>
<defs>
<linearGradient id="paint0_linear_0_1" x1="10.5017" y1="63.5" x2="10.5031" y2="425" gradientUnits="userSpaceOnUse">
<stop stop-color="#12FFF1"/>
<stop offset="1" stop-color="#12FFF1" stop-opacity="0"/>
</linearGradient>
</defs>
</svg>
