<svg width="368" height="427" viewBox="0 0 368 427" fill="none" xmlns="http://www.w3.org/2000/svg">
<line x1="5.20386" y1="426.011" x2="5.20386" y2="43.99" stroke="url(#paint0_linear_0_1)" stroke-width="9.5"/>
<path d="M0.433516 44V1.64H7.03352L9.85352 10.1V44H0.433516ZM29.6535 44L4.69352 12.02L7.03352 1.64L31.9935 33.62L29.6535 44ZM29.6535 44L27.1335 35.54V1.64H36.5535V44H29.6535ZM41.5504 44L58.3504 1.64H66.8704L83.4904 44H73.5304L60.8104 8.84H64.2304L51.3304 44H41.5504ZM51.0904 36.32V28.64H74.1904V36.32H51.0904ZM96.2507 44L79.9307 1.64H90.0107L102.431 35.9H98.2907L110.891 1.64H120.851L104.351 44H96.2507ZM125.824 44V1.64H135.244V44H125.824ZM163.382 44.66C160.302 44.66 157.402 44.1 154.682 42.98C152.002 41.86 149.662 40.32 147.662 38.36C145.662 36.36 144.082 34.04 142.922 31.4C141.802 28.72 141.242 25.84 141.242 22.76C141.242 19.68 141.822 16.82 142.982 14.18C144.142 11.54 145.742 9.24 147.782 7.28C149.862 5.28 152.282 3.74 155.042 2.66C157.802 1.54 160.762 0.98 163.922 0.98C167.562 0.98 170.862 1.64 173.822 2.96C176.822 4.28 179.302 6.1 181.262 8.42L174.842 14.84C173.482 13.08 171.882 11.76 170.042 10.88C168.202 10 166.122 9.56 163.802 9.56C161.322 9.56 159.102 10.12 157.142 11.24C155.182 12.32 153.642 13.86 152.522 15.86C151.442 17.82 150.902 20.12 150.902 22.76C150.902 25.4 151.442 27.72 152.522 29.72C153.602 31.72 155.082 33.28 156.962 34.4C158.842 35.52 161.002 36.08 163.442 36.08C165.922 36.08 168.022 35.62 169.742 34.7C171.502 33.74 172.842 32.38 173.762 30.62C174.722 28.82 175.202 26.64 175.202 24.08L181.442 28.28L162.542 27.98V20H184.802V21.38C184.802 26.46 183.882 30.74 182.042 34.22C180.242 37.66 177.722 40.26 174.482 42.02C171.282 43.78 167.582 44.66 163.382 44.66ZM185.515 44L202.315 1.64H210.835L227.455 44H217.495L204.775 8.84H208.195L195.295 44H185.515ZM195.055 36.32V28.64H218.155V36.32H195.055ZM237.571 44V2.24H246.991V44H237.571ZM224.311 9.86V1.64H260.251V9.86H224.311ZM265.512 44V1.64H274.932V44H265.512ZM303.31 44.72C300.11 44.72 297.15 44.16 294.43 43.04C291.75 41.92 289.39 40.36 287.35 38.36C285.31 36.36 283.73 34.04 282.61 31.4C281.49 28.72 280.93 25.84 280.93 22.76C280.93 19.64 281.49 16.76 282.61 14.12C283.73 11.48 285.29 9.18 287.29 7.22C289.29 5.22 291.63 3.68 294.31 2.6C297.03 1.48 299.99 0.919997 303.19 0.919997C306.35 0.919997 309.27 1.48 311.95 2.6C314.67 3.68 317.03 5.22 319.03 7.22C321.07 9.18 322.65 11.5 323.77 14.18C324.89 16.82 325.45 19.7 325.45 22.82C325.45 25.9 324.89 28.78 323.77 31.46C322.65 34.1 321.09 36.42 319.09 38.42C317.09 40.38 314.73 41.92 312.01 43.04C309.33 44.16 306.43 44.72 303.31 44.72ZM303.19 36.14C305.71 36.14 307.91 35.58 309.79 34.46C311.71 33.34 313.19 31.78 314.23 29.78C315.27 27.74 315.79 25.4 315.79 22.76C315.79 20.76 315.49 18.96 314.89 17.36C314.29 15.72 313.43 14.32 312.31 13.16C311.19 11.96 309.85 11.06 308.29 10.46C306.77 9.82 305.07 9.5 303.19 9.5C300.67 9.5 298.45 10.06 296.53 11.18C294.65 12.26 293.19 13.8 292.15 15.8C291.11 17.76 290.59 20.08 290.59 22.76C290.59 24.76 290.89 26.58 291.49 28.22C292.09 29.86 292.93 31.28 294.01 32.48C295.13 33.64 296.47 34.54 298.03 35.18C299.59 35.82 301.31 36.14 303.19 36.14ZM331.43 44V1.64H338.03L340.85 10.1V44H331.43ZM360.65 44L335.69 12.02L338.03 1.64L362.99 33.62L360.65 44ZM360.65 44L358.13 35.54V1.64H367.55V44H360.65Z" fill="#12FFF1"/>
<defs>
<linearGradient id="paint0_linear_0_1" x1="10.0017" y1="63.5" x2="10.0031" y2="425" gradientUnits="userSpaceOnUse">
<stop stop-color="#12FFF1"/>
<stop offset="1" stop-color="#12FFF1" stop-opacity="0"/>
</linearGradient>
</defs>
</svg>
