<svg width="286" height="727" viewBox="0 0 286 727" fill="none" xmlns="http://www.w3.org/2000/svg">
<path d="M206.462 170.22V160.91H216.262C217.476 160.91 218.572 160.677 219.552 160.21C220.579 159.697 221.396 158.95 222.002 157.97C222.609 156.99 222.912 155.777 222.912 154.33C222.912 152.883 222.609 151.67 222.002 150.69C221.396 149.663 220.579 148.917 219.552 148.45C218.572 147.937 217.476 147.68 216.262 147.68H206.462V138.37H218.432C221.606 138.37 224.476 139.023 227.042 140.33C229.609 141.59 231.639 143.41 233.132 145.79C234.626 148.123 235.372 150.97 235.372 154.33C235.372 157.597 234.626 160.443 233.132 162.87C231.639 165.25 229.609 167.07 227.042 168.33C224.476 169.59 221.606 170.22 218.432 170.22H206.462ZM196.522 188V138.37H209.052V188H196.522ZM205.642 255.91V246.95H215.092C217.145 246.95 218.709 246.46 219.782 245.48C220.902 244.453 221.462 243.077 221.462 241.35C221.462 239.67 220.902 238.317 219.782 237.29C218.709 236.217 217.145 235.68 215.092 235.68H205.642V226.37H216.842C220.202 226.37 223.142 227 225.662 228.26C228.229 229.52 230.235 231.247 231.682 233.44C233.129 235.633 233.852 238.2 233.852 241.14C233.852 244.08 233.105 246.67 231.612 248.91C230.165 251.103 228.135 252.83 225.522 254.09C222.909 255.303 219.852 255.91 216.352 255.91H205.642ZM195.702 276V226.37H208.232V276H195.702ZM222.582 276L208.162 254.72L219.432 251.99L237.072 276H222.582ZM214.657 364.91C210.83 364.91 207.307 364.257 204.087 362.95C200.867 361.643 198.043 359.823 195.617 357.49C193.237 355.157 191.37 352.427 190.017 349.3C188.663 346.127 187.987 342.72 187.987 339.08C187.987 335.44 188.64 332.08 189.947 329C191.3 325.873 193.167 323.143 195.547 320.81C197.927 318.477 200.727 316.68 203.947 315.42C207.167 314.113 210.69 313.46 214.517 313.46C218.343 313.46 221.867 314.113 225.087 315.42C228.307 316.68 231.107 318.477 233.487 320.81C235.867 323.143 237.71 325.873 239.017 329C240.37 332.127 241.047 335.51 241.047 339.15C241.047 342.79 240.37 346.173 239.017 349.3C237.71 352.427 235.867 355.18 233.487 357.56C231.107 359.893 228.307 361.713 225.087 363.02C221.913 364.28 218.437 364.91 214.657 364.91ZM214.517 353.71C217.317 353.71 219.743 353.103 221.797 351.89C223.85 350.677 225.437 348.973 226.557 346.78C227.677 344.587 228.237 342.02 228.237 339.08C228.237 336.933 227.91 334.973 227.257 333.2C226.65 331.427 225.74 329.91 224.527 328.65C223.313 327.343 221.867 326.34 220.187 325.64C218.507 324.94 216.617 324.59 214.517 324.59C211.717 324.59 209.29 325.197 207.237 326.41C205.183 327.577 203.597 329.257 202.477 331.45C201.357 333.643 200.797 336.187 200.797 339.08C200.797 341.32 201.1 343.35 201.707 345.17C202.36 346.943 203.293 348.483 204.507 349.79C205.72 351.05 207.167 352.03 208.847 352.73C210.527 353.383 212.417 353.71 214.517 353.71ZM210.587 452.77C207.32 452.77 204.497 452.21 202.117 451.09C199.784 449.923 197.73 448.29 195.957 446.19L204.077 438.14C204.917 439.307 205.897 440.193 207.017 440.8C208.184 441.36 209.49 441.64 210.937 441.64C212.197 441.64 213.317 441.383 214.297 440.87C215.324 440.31 216.117 439.517 216.677 438.49C217.284 437.417 217.587 436.063 217.587 434.43V402.37H230.117V433.87C230.117 437.79 229.324 441.173 227.737 444.02C226.197 446.82 223.957 448.99 221.017 450.53C218.124 452.023 214.647 452.77 210.587 452.77ZM196.967 540V490.37H209.497V540H196.967ZM206.907 540V529.43H233.787V540H206.907ZM206.907 519.84V509.55H231.267V519.84H206.907ZM206.907 500.94V490.37H233.367V500.94H206.907ZM218.757 628.77C214.977 628.77 211.477 628.14 208.257 626.88C205.037 625.573 202.213 623.777 199.787 621.49C197.407 619.157 195.54 616.427 194.187 613.3C192.88 610.173 192.227 606.79 192.227 603.15C192.227 599.463 192.88 596.08 194.187 593C195.54 589.873 197.407 587.167 199.787 584.88C202.213 582.593 205.013 580.797 208.187 579.49C211.407 578.183 214.883 577.53 218.617 577.53C222.537 577.53 226.06 578.16 229.187 579.42C232.313 580.633 235.067 582.337 237.447 584.53L229.047 592.93C227.88 591.623 226.433 590.597 224.707 589.85C222.98 589.103 220.95 588.73 218.617 588.73C216.61 588.73 214.767 589.057 213.087 589.71C211.453 590.363 210.03 591.343 208.817 592.65C207.603 593.91 206.647 595.427 205.947 597.2C205.293 598.973 204.967 600.957 204.967 603.15C204.967 605.343 205.293 607.327 205.947 609.1C206.647 610.873 207.603 612.413 208.817 613.72C210.03 614.98 211.453 615.96 213.087 616.66C214.767 617.313 216.61 617.64 218.617 617.64C220.95 617.64 223.003 617.29 224.777 616.59C226.55 615.843 228.067 614.793 229.327 613.44L237.727 621.84C235.3 624.033 232.547 625.737 229.467 626.95C226.433 628.163 222.863 628.77 218.757 628.77ZM208.221 716V666.72H220.751V716H208.221ZM193.031 677.15V666.37H235.941V677.15H193.031Z" fill="#12FFF1"/>
<path d="M35.9699 86V17.936H48.3539L74.4659 57.392H68.6099L94.6259 17.936H107.01V86H90.0179V46.352L92.7059 47.12L77.0579 70.64H65.9219L50.3699 47.12L53.0579 46.352V86H35.9699ZM65.0519 182.616L39.0359 138.936H58.7159L78.5879 174.36H64.7639L84.6359 138.936H103.932L77.7239 182.616H65.0519ZM63.0359 207V175.608H80.2199V207H63.0359Z" fill="#12FFF1"/>
<path d="M71.0407 247L70.9983 716" stroke="#0AA097" stroke-width="22" stroke-linecap="round"/>
<path d="M214 98.0016L214.5 22" stroke="#0AA097" stroke-width="22" stroke-linecap="round"/>
</svg>
