<svg width="312" height="426" viewBox="0 0 312 426" fill="none" xmlns="http://www.w3.org/2000/svg">
<line x1="5.70386" y1="425.011" x2="5.70386" y2="43.99" stroke="url(#paint0_linear_0_1)" stroke-width="9.5"/>
<path d="M8.28 26.54V19.58H17.22C19.1 19.58 20.54 19.1 21.54 18.14C22.58 17.18 23.1 15.88 23.1 14.24C23.1 12.72 22.6 11.46 21.6 10.46C20.6 9.46 19.16 8.96 17.28 8.96H8.28V1.64H18.36C21.16 1.64 23.62 2.18 25.74 3.26C27.86 4.3 29.52 5.76 30.72 7.64C31.92 9.52 32.52 11.68 32.52 14.12C32.52 16.6 31.92 18.78 30.72 20.66C29.52 22.5 27.84 23.94 25.68 24.98C23.52 26.02 20.98 26.54 18.06 26.54H8.28ZM1.08 44V1.64H10.5V44H1.08ZM24.12 44L10.92 25.76L19.56 23.42L35.28 44H24.12ZM39.4003 44V1.64H48.8203V44H39.4003ZM46.6003 44V35.84H69.8203V44H46.6003ZM46.6003 26.3V18.44H67.7203V26.3H46.6003ZM46.6003 9.74V1.64H69.5203V9.74H46.6003ZM87.9797 44.66C84.4997 44.66 81.4997 44.1 78.9797 42.98C76.4997 41.82 74.2197 40.08 72.1397 37.76L78.2597 31.7C79.6197 33.26 81.1197 34.48 82.7597 35.36C84.4397 36.2 86.3797 36.62 88.5797 36.62C90.5797 36.62 92.1197 36.26 93.1997 35.54C94.3197 34.82 94.8797 33.82 94.8797 32.54C94.8797 31.38 94.5197 30.44 93.7997 29.72C93.0797 29 92.1197 28.38 90.9197 27.86C89.7597 27.34 88.4597 26.84 87.0197 26.36C85.6197 25.88 84.2197 25.34 82.8197 24.74C81.4197 24.1 80.1197 23.32 78.9197 22.4C77.7597 21.44 76.8197 20.26 76.0997 18.86C75.3797 17.42 75.0197 15.62 75.0197 13.46C75.0197 10.86 75.6397 8.62 76.8797 6.74C78.1597 4.86 79.9197 3.44 82.1597 2.48C84.3997 1.48 86.9797 0.98 89.8997 0.98C92.8597 0.98 95.5597 1.5 97.9997 2.54C100.48 3.58 102.52 5 104.12 6.8L97.9997 12.86C96.7197 11.54 95.4197 10.56 94.0997 9.92C92.8197 9.28 91.3597 8.96 89.7197 8.96C88.0797 8.96 86.7797 9.28 85.8197 9.92C84.8597 10.52 84.3797 11.4 84.3797 12.56C84.3797 13.64 84.7397 14.52 85.4597 15.2C86.1797 15.84 87.1197 16.4 88.2797 16.88C89.4797 17.36 90.7797 17.84 92.1797 18.32C93.6197 18.8 95.0397 19.36 96.4397 20C97.8397 20.64 99.1197 21.46 100.28 22.46C101.48 23.42 102.44 24.66 103.16 26.18C103.88 27.66 104.24 29.5 104.24 31.7C104.24 35.74 102.8 38.92 99.9197 41.24C97.0397 43.52 93.0597 44.66 87.9797 44.66ZM130.812 44.72C127.612 44.72 124.652 44.16 121.932 43.04C119.252 41.92 116.892 40.36 114.852 38.36C112.812 36.36 111.232 34.04 110.112 31.4C108.992 28.72 108.432 25.84 108.432 22.76C108.432 19.64 108.992 16.76 110.112 14.12C111.232 11.48 112.792 9.18 114.792 7.22C116.792 5.22 119.132 3.68 121.812 2.6C124.532 1.48 127.492 0.919997 130.692 0.919997C133.852 0.919997 136.772 1.48 139.452 2.6C142.172 3.68 144.532 5.22 146.532 7.22C148.572 9.18 150.152 11.5 151.272 14.18C152.392 16.82 152.952 19.7 152.952 22.82C152.952 25.9 152.392 28.78 151.272 31.46C150.152 34.1 148.592 36.42 146.592 38.42C144.592 40.38 142.232 41.92 139.512 43.04C136.832 44.16 133.932 44.72 130.812 44.72ZM130.692 36.14C133.212 36.14 135.412 35.58 137.292 34.46C139.212 33.34 140.692 31.78 141.732 29.78C142.772 27.74 143.292 25.4 143.292 22.76C143.292 20.76 142.992 18.96 142.392 17.36C141.792 15.72 140.932 14.32 139.812 13.16C138.692 11.96 137.352 11.06 135.792 10.46C134.272 9.82 132.572 9.5 130.692 9.5C128.172 9.5 125.952 10.06 124.032 11.18C122.152 12.26 120.692 13.8 119.652 15.8C118.612 17.76 118.092 20.08 118.092 22.76C118.092 24.76 118.392 26.58 118.992 28.22C119.592 29.86 120.432 31.28 121.512 32.48C122.632 33.64 123.972 34.54 125.532 35.18C127.092 35.82 128.812 36.14 130.692 36.14ZM166.132 26.54V19.58H175.072C176.952 19.58 178.392 19.1 179.392 18.14C180.432 17.18 180.952 15.88 180.952 14.24C180.952 12.72 180.452 11.46 179.452 10.46C178.452 9.46 177.012 8.96 175.132 8.96H166.132V1.64H176.212C179.012 1.64 181.472 2.18 183.592 3.26C185.712 4.3 187.372 5.76 188.572 7.64C189.772 9.52 190.372 11.68 190.372 14.12C190.372 16.6 189.772 18.78 188.572 20.66C187.372 22.5 185.692 23.94 183.532 24.98C181.372 26.02 178.832 26.54 175.912 26.54H166.132ZM158.932 44V1.64H168.352V44H158.932ZM181.972 44L168.772 25.76L177.412 23.42L193.132 44H181.972ZM214.175 44.66C210.695 44.66 207.615 43.92 204.935 42.44C202.295 40.96 200.215 38.92 198.695 36.32C197.215 33.68 196.475 30.68 196.475 27.32V1.64H205.955V27.86C205.955 29.54 206.315 31 207.035 32.24C207.755 33.48 208.735 34.44 209.975 35.12C211.255 35.76 212.655 36.08 214.175 36.08C215.775 36.08 217.175 35.76 218.375 35.12C219.575 34.44 220.515 33.5 221.195 32.3C221.915 31.06 222.275 29.6 222.275 27.92V1.64H231.755V27.38C231.755 30.74 231.015 33.72 229.535 36.32C228.055 38.92 225.995 40.96 223.355 42.44C220.715 43.92 217.655 44.66 214.175 44.66ZM259.364 44.66C256.204 44.66 253.264 44.12 250.544 43.04C247.864 41.92 245.504 40.36 243.464 38.36C241.464 36.36 239.904 34.04 238.784 31.4C237.664 28.72 237.104 25.84 237.104 22.76C237.104 19.68 237.664 16.82 238.784 14.18C239.904 11.5 241.464 9.18 243.464 7.22C245.464 5.26 247.804 3.74 250.484 2.66C253.204 1.54 256.144 0.98 259.304 0.98C262.664 0.98 265.644 1.52 268.244 2.6C270.884 3.68 273.184 5.16 275.144 7.04L268.844 13.4C267.724 12.2 266.364 11.26 264.764 10.58C263.204 9.9 261.384 9.56 259.304 9.56C257.464 9.56 255.764 9.88 254.204 10.52C252.684 11.12 251.364 12 250.244 13.16C249.164 14.32 248.304 15.72 247.664 17.36C247.064 19 246.764 20.8 246.764 22.76C246.764 24.76 247.064 26.58 247.664 28.22C248.304 29.86 249.164 31.26 250.244 32.42C251.364 33.58 252.684 34.48 254.204 35.12C255.764 35.76 257.464 36.08 259.304 36.08C261.464 36.08 263.344 35.74 264.944 35.06C266.544 34.38 267.924 33.44 269.084 32.24L275.444 38.6C273.404 40.48 271.064 41.96 268.424 43.04C265.824 44.12 262.804 44.66 259.364 44.66ZM280.631 44V1.64H290.051V44H280.631ZM287.831 44V35.84H311.051V44H287.831ZM287.831 26.3V18.44H308.951V26.3H287.831ZM287.831 9.74V1.64H310.751V9.74H287.831Z" fill="#12FFF1"/>
<path d="M18.1603 99L9.5 90.3397L0.839746 99L9.5 107.66L18.1603 99ZM5.5 100.5H9.5V97.5H5.5V100.5Z" fill="#12FFF1"/>
<path d="M18.1603 181L9.5 172.34L0.839746 181L9.5 189.66L18.1603 181ZM5.5 182.5H9.5V179.5H5.5V182.5Z" fill="#0EB4AF"/>
<path d="M18.1603 263L9.5 254.34L0.839746 263L9.5 271.66L18.1603 263ZM5.5 264.5H9.5V261.5H5.5V264.5Z" fill="#0B7E7F"/>
<path d="M18.1603 347L9.5 338.34L0.839746 347L9.5 355.66L18.1603 347ZM5.5 348.5H9.5V345.5H5.5V348.5Z" fill="#08464E"/>
<defs>
<linearGradient id="paint0_linear_0_1" x1="10.5017" y1="63.5" x2="10.5031" y2="425" gradientUnits="userSpaceOnUse">
<stop stop-color="#12FFF1"/>
<stop offset="1" stop-color="#12FFF1" stop-opacity="0"/>
</linearGradient>
</defs>
</svg>
