<svg width="311" height="416" viewBox="0 0 311 416" fill="none" xmlns="http://www.w3.org/2000/svg">
<path d="M5.70386 415.011V33.99" stroke="url(#paint0_linear_0_1)" stroke-width="9.5"/>
<path d="M8.28 26.54V19.58H17.22C19.1 19.58 20.54 19.1 21.54 18.14C22.58 17.18 23.1 15.88 23.1 14.24C23.1 12.72 22.6 11.46 21.6 10.46C20.6 9.46 19.16 8.96 17.28 8.96H8.28V1.64H18.36C21.16 1.64 23.62 2.18 25.74 3.26C27.86 4.3 29.52 5.76 30.72 7.64C31.92 9.52 32.52 11.68 32.52 14.12C32.52 16.6 31.92 18.78 30.72 20.66C29.52 22.5 27.84 23.94 25.68 24.98C23.52 26.02 20.98 26.54 18.06 26.54H8.28ZM1.08 44V1.64H10.5V44H1.08ZM24.12 44L10.92 25.76L19.56 23.42L35.28 44H24.12ZM39.4003 44V1.64H48.8203V44H39.4003ZM46.6003 44V35.84H69.8203V44H46.6003ZM46.6003 26.3V18.44H67.7203V26.3H46.6003ZM46.6003 9.74V1.64H69.5203V9.74H46.6003ZM87.9797 44.66C84.4997 44.66 81.4997 44.1 78.9797 42.98C76.4997 41.82 74.2197 40.08 72.1397 37.76L78.2597 31.7C79.6197 33.26 81.1197 34.48 82.7597 35.36C84.4397 36.2 86.3797 36.62 88.5797 36.62C90.5797 36.62 92.1197 36.26 93.1997 35.54C94.3197 34.82 94.8797 33.82 94.8797 32.54C94.8797 31.38 94.5197 30.44 93.7997 29.72C93.0797 29 92.1197 28.38 90.9197 27.86C89.7597 27.34 88.4597 26.84 87.0197 26.36C85.6197 25.88 84.2197 25.34 82.8197 24.74C81.4197 24.1 80.1197 23.32 78.9197 22.4C77.7597 21.44 76.8197 20.26 76.0997 18.86C75.3797 17.42 75.0197 15.62 75.0197 13.46C75.0197 10.86 75.6397 8.62 76.8797 6.74C78.1597 4.86 79.9197 3.44 82.1597 2.48C84.3997 1.48 86.9797 0.98 89.8997 0.98C92.8597 0.98 95.5597 1.5 97.9997 2.54C100.48 3.58 102.52 5 104.12 6.8L97.9997 12.86C96.7197 11.54 95.4197 10.56 94.0997 9.92C92.8197 9.28 91.3597 8.96 89.7197 8.96C88.0797 8.96 86.7797 9.28 85.8197 9.92C84.8597 10.52 84.3797 11.4 84.3797 12.56C84.3797 13.64 84.7397 14.52 85.4597 15.2C86.1797 15.84 87.1197 16.4 88.2797 16.88C89.4797 17.36 90.7797 17.84 92.1797 18.32C93.6197 18.8 95.0397 19.36 96.4397 20C97.8397 20.64 99.1197 21.46 100.28 22.46C101.48 23.42 102.44 24.66 103.16 26.18C103.88 27.66 104.24 29.5 104.24 31.7C104.24 35.74 102.8 38.92 99.9197 41.24C97.0397 43.52 93.0597 44.66 87.9797 44.66ZM130.812 44.72C127.612 44.72 124.652 44.16 121.932 43.04C119.252 41.92 116.892 40.36 114.852 38.36C112.812 36.36 111.232 34.04 110.112 31.4C108.992 28.72 108.432 25.84 108.432 22.76C108.432 19.64 108.992 16.76 110.112 14.12C111.232 11.48 112.792 9.18 114.792 7.22C116.792 5.22 119.132 3.68 121.812 2.6C124.532 1.48 127.492 0.919997 130.692 0.919997C133.852 0.919997 136.772 1.48 139.452 2.6C142.172 3.68 144.532 5.22 146.532 7.22C148.572 9.18 150.152 11.5 151.272 14.18C152.392 16.82 152.952 19.7 152.952 22.82C152.952 25.9 152.392 28.78 151.272 31.46C150.152 34.1 148.592 36.42 146.592 38.42C144.592 40.38 142.232 41.92 139.512 43.04C136.832 44.16 133.932 44.72 130.812 44.72ZM130.692 36.14C133.212 36.14 135.412 35.58 137.292 34.46C139.212 33.34 140.692 31.78 141.732 29.78C142.772 27.74 143.292 25.4 143.292 22.76C143.292 20.76 142.992 18.96 142.392 17.36C141.792 15.72 140.932 14.32 139.812 13.16C138.692 11.96 137.352 11.06 135.792 10.46C134.272 9.82 132.572 9.5 130.692 9.5C128.172 9.5 125.952 10.06 124.032 11.18C122.152 12.26 120.692 13.8 119.652 15.8C118.612 17.76 118.092 20.08 118.092 22.76C118.092 24.76 118.392 26.58 118.992 28.22C119.592 29.86 120.432 31.28 121.512 32.48C122.632 33.64 123.972 34.54 125.532 35.18C127.092 35.82 128.812 36.14 130.692 36.14ZM175.972 44.66C172.492 44.66 169.412 43.92 166.732 42.44C164.092 40.96 162.012 38.92 160.492 36.32C159.012 33.68 158.272 30.68 158.272 27.32V1.64H167.752V27.86C167.752 29.54 168.112 31 168.832 32.24C169.552 33.48 170.532 34.44 171.772 35.12C173.052 35.76 174.452 36.08 175.972 36.08C177.572 36.08 178.972 35.76 180.172 35.12C181.372 34.44 182.312 33.5 182.992 32.3C183.712 31.06 184.072 29.6 184.072 27.92V1.64H193.552V27.38C193.552 30.74 192.812 33.72 191.332 36.32C189.852 38.92 187.792 40.96 185.152 42.44C182.512 43.92 179.452 44.66 175.972 44.66ZM208.26 26.54V19.58H217.2C219.08 19.58 220.52 19.1 221.52 18.14C222.56 17.18 223.08 15.88 223.08 14.24C223.08 12.72 222.58 11.46 221.58 10.46C220.58 9.46 219.14 8.96 217.26 8.96H208.26V1.64H218.34C221.14 1.64 223.6 2.18 225.72 3.26C227.84 4.3 229.5 5.76 230.7 7.64C231.9 9.52 232.5 11.68 232.5 14.12C232.5 16.6 231.9 18.78 230.7 20.66C229.5 22.5 227.82 23.94 225.66 24.98C223.5 26.02 220.96 26.54 218.04 26.54H208.26ZM201.06 44V1.64H210.48V44H201.06ZM224.1 44L210.9 25.76L219.54 23.42L235.26 44H224.1ZM259.246 44.66C256.086 44.66 253.146 44.12 250.426 43.04C247.746 41.92 245.386 40.36 243.346 38.36C241.346 36.36 239.786 34.04 238.666 31.4C237.546 28.72 236.986 25.84 236.986 22.76C236.986 19.68 237.546 16.82 238.666 14.18C239.786 11.5 241.346 9.18 243.346 7.22C245.346 5.26 247.686 3.74 250.366 2.66C253.086 1.54 256.026 0.98 259.186 0.98C262.546 0.98 265.526 1.52 268.126 2.6C270.766 3.68 273.066 5.16 275.026 7.04L268.726 13.4C267.606 12.2 266.246 11.26 264.646 10.58C263.086 9.9 261.266 9.56 259.186 9.56C257.346 9.56 255.646 9.88 254.086 10.52C252.566 11.12 251.246 12 250.126 13.16C249.046 14.32 248.186 15.72 247.546 17.36C246.946 19 246.646 20.8 246.646 22.76C246.646 24.76 246.946 26.58 247.546 28.22C248.186 29.86 249.046 31.26 250.126 32.42C251.246 33.58 252.566 34.48 254.086 35.12C255.646 35.76 257.346 36.08 259.186 36.08C261.346 36.08 263.226 35.74 264.826 35.06C266.426 34.38 267.806 33.44 268.966 32.24L275.326 38.6C273.286 40.48 270.946 41.96 268.306 43.04C265.706 44.12 262.686 44.66 259.246 44.66ZM280.514 44V1.64H289.934V44H280.514ZM287.714 44V35.84H310.934V44H287.714ZM287.714 26.3V18.44H308.834V26.3H287.714ZM287.714 9.74V1.64H310.634V9.74H287.714Z" fill="#12FFF1"/>
<defs>
<linearGradient id="paint0_linear_0_1" x1="6.00185" y1="26" x2="6.00243" y2="390.5" gradientUnits="userSpaceOnUse">
<stop stop-color="#12FFF1"/>
<stop offset="1" stop-color="#12FFF1" stop-opacity="0"/>
</linearGradient>
</defs>
</svg>
